<?xml version="1.0" encoding="UTF-8" standalone="no"?>
<!-- Created with Inkscape (http://www.inkscape.org/) -->

<svg
   width="451.53699mm"
   height="170mm"
   viewBox="0 0 451.53699 170"
   version="1.1"
   id="svg5"
   inkscape:version="1.1.1 (3bf5ae0d25, 2021-09-20)"
   sodipodi:docname="peta-indonesia.svg"
   xmlns:inkscape="http://www.inkscape.org/namespaces/inkscape"
   xmlns:sodipodi="http://sodipodi.sourceforge.net/DTD/sodipodi-0.dtd"
   xmlns="http://www.w3.org/2000/svg"
   xmlns:svg="http://www.w3.org/2000/svg">
  <sodipodi:namedview
     id="namedview7"
     pagecolor="#ffffff"
     bordercolor="#666666"
     borderopacity="1.0"
     inkscape:pageshadow="2"
     inkscape:pageopacity="0.0"
     inkscape:pagecheckerboard="0"
     inkscape:document-units="mm"
     showgrid="false"
     width="451.556mm"
     inkscape:zoom="0.23340348"
     inkscape:cx="983.27583"
     inkscape:cy="537.6955"
     inkscape:window-width="1280"
     inkscape:window-height="741"
     inkscape:window-x="0"
     inkscape:window-y="28"
     inkscape:window-maximized="1"
     inkscape:current-layer="layer1" />
  <defs
     id="defs2">
    <filter
       style="color-interpolation-filters:sRGB"
       inkscape:label="Fade to Black or White"
       id="filter874"
       x="0"
       y="0"
       width="1"
       height="1">
      <feColorMatrix
         type="luminanceToAlpha"
         result="colormatrix1"
         id="feColorMatrix854" />
      <feFlood
         flood-opacity="1"
         flood-color="rgb(81,81,245)"
         result="flood1"
         id="feFlood856" />
      <feComposite
         in2="colormatrix1"
         operator="out"
         result="composite1"
         id="feComposite858" />
      <feFlood
         flood-opacity="1"
         flood-color="rgb(255,255,0)"
         result="flood2"
         id="feFlood860" />
      <feComposite
         in2="colormatrix1"
         result="composite2"
         operator="in"
         id="feComposite862" />
      <feComposite
         in="composite2"
         in2="composite1"
         k2="1"
         k3="1"
         operator="arithmetic"
         result="composite3"
         id="feComposite864"
         k1="0"
         k4="0" />
      <feColorMatrix
         in="composite3"
         type="matrix"
         values="2 -1 0 0 0 0 2 -1 0 0 -1 0 2 0 0 0 0 0 1 0 "
         result="colormatrix2"
         id="feColorMatrix866" />
      <feComposite
         in="colormatrix2"
         in2="composite3"
         operator="arithmetic"
         k2="0"
         result="composite4"
         id="feComposite868"
         k1="0"
         k3="0"
         k4="0" />
      <feBlend
         in="composite4"
         in2="composite3"
         mode="normal"
         result="blend"
         id="feBlend870" />
      <feComposite
         in2="SourceGraphic"
         operator="in"
         id="feComposite872"
         result="fbSourceGraphic" />
      <feColorMatrix
         result="fbSourceGraphicAlpha"
         in="fbSourceGraphic"
         values="0 0 0 -1 0 0 0 0 -1 0 0 0 0 -1 0 0 0 0 1 0"
         id="feColorMatrix984" />
      <feColorMatrix
         id="feColorMatrix986"
         values="1 0 0 0 0 0 1 0 0 0 0 0 1 0 0 -0.21 -0.72 -0.07 2 0 "
         result="fbSourceGraphic"
         in="fbSourceGraphic" />
      <feColorMatrix
         result="fbSourceGraphicAlpha"
         in="fbSourceGraphic"
         values="0 0 0 -1 0 0 0 0 -1 0 0 0 0 -1 0 0 0 0 1 0"
         id="feColorMatrix1006" />
      <feColorMatrix
         id="feColorMatrix1008"
         values="1 0 0 0 0 0 1 0 0 0 0 0 1 0 0 0 0 0 1 0"
         in="fbSourceGraphic"
         result="fbSourceGraphic" />
      <feColorMatrix
         result="fbSourceGraphicAlpha"
         in="fbSourceGraphic"
         values="0 0 0 -1 0 0 0 0 -1 0 0 0 0 -1 0 0 0 0 1 0"
         id="feColorMatrix1028" />
      <feColorMatrix
         id="feColorMatrix1030"
         values="1 0 0 0 0 0 1 0 0 0 0 0 1 0 0 0 0 0 1 0"
         in="fbSourceGraphic"
         result="fbSourceGraphic" />
      <feColorMatrix
         result="fbSourceGraphicAlpha"
         in="fbSourceGraphic"
         values="0 0 0 -1 0 0 0 0 -1 0 0 0 0 -1 0 0 0 0 1 0"
         id="feColorMatrix1050" />
      <feColorMatrix
         id="feColorMatrix1052"
         values="1 0 0 0 0 0 1 0 0 0 0 0 1 0 0 0 0 0 1 0"
         in="fbSourceGraphic"
         result="fbSourceGraphic" />
      <feColorMatrix
         result="fbSourceGraphicAlpha"
         in="fbSourceGraphic"
         values="0 0 0 -1 0 0 0 0 -1 0 0 0 0 -1 0 0 0 0 1 0"
         id="feColorMatrix1072" />
      <feColorMatrix
         id="feColorMatrix1074"
         values="1 0 0 0 0 0 1 0 0 0 0 0 1 0 0 0 0 0 1 0"
         in="fbSourceGraphic"
         result="fbSourceGraphic" />
      <feColorMatrix
         result="fbSourceGraphicAlpha"
         in="fbSourceGraphic"
         values="0 0 0 -1 0 0 0 0 -1 0 0 0 0 -1 0 0 0 0 1 0"
         id="feColorMatrix1094" />
      <feColorMatrix
         id="feColorMatrix1096"
         values="1 0 0 0 0 0 1 0 0 0 0 0 1 0 0 0 0 0 1 0"
         in="fbSourceGraphic" />
    </filter>
  </defs>
  <g
     inkscape:label="Layer 1"
     inkscape:groupmode="layer"
     id="layer1">
    <path
       style="fill:#ffffff;stroke-width:0.352778"
       d="m 272.67814,166.81915 c 0,-0.35262 0.61173,-0.84506 1.54864,-1.24667 0.85175,-0.3651 1.6503,-0.82832 1.77456,-1.02937 0.12425,-0.20105 0.72645,-0.72196 1.3382,-1.15756 0.9738,-0.69341 1.08152,-0.71185 0.86519,-0.1481 -0.1359,0.35415 -0.0677,0.86003 0.1515,1.12419 0.30844,0.37164 0.24996,0.53301 -0.25849,0.71341 -0.3614,0.12822 -0.9746,0.50673 -1.36265,0.84114 -0.38806,0.3344 -1.10243,0.6948 -1.5875,0.80089 -0.48507,0.10609 -1.23913,0.3036 -1.6757,0.4389 -0.60213,0.18663 -0.79375,0.10531 -0.79375,-0.33683 z m -10.18607,-2.64695 c -0.39025,-0.24119 -0.35596,-0.42157 0.18251,-0.96004 0.68471,-0.68471 2.02666,-0.71313 1.80167,-0.0382 -0.22673,0.68017 -1.47922,1.31027 -1.98418,0.99819 z m 15.12496,-2.75451 c 0,-0.20181 0.69616,-1.2186 1.54703,-2.25954 0.85086,-1.04093 1.65889,-2.41613 1.79562,-3.05599 0.24926,-1.1665 2.7715,-3.92561 3.60455,-3.94308 0.23144,-0.005 0.94582,-0.30875 1.5875,-0.67534 0.64168,-0.36658 1.79325,-0.77652 2.55904,-0.91095 0.7658,-0.13444 1.77939,-0.54888 2.25244,-0.92098 0.47305,-0.3721 1.10626,-0.67654 1.40714,-0.67654 0.30087,0 0.91657,-0.34715 1.3682,-0.77145 0.63359,-0.59522 0.91679,-0.6758 1.23982,-0.35277 0.23027,0.23026 0.77442,0.41866 1.20923,0.41866 1.13653,0 1.2799,0.48975 0.45162,1.54274 -0.47641,0.60565 -0.68576,1.31307 -0.61256,2.06993 0.0941,0.97267 -0.0144,1.16763 -0.70411,1.26539 -0.44843,0.0636 -0.90883,0.38105 -1.02312,0.70555 -0.11429,0.3245 -1.44658,1.82031 -2.96066,3.32403 -2.48721,2.47019 -2.88534,2.73403 -4.12568,2.73403 -0.92479,0 -1.5812,0.23026 -2.01133,0.70555 -0.68428,0.75612 -3.12751,1.00044 -3.52778,0.35278 -0.34982,-0.56602 -2.70748,-0.40634 -3.41181,0.23106 -0.35482,0.32112 -0.64514,0.41873 -0.64514,0.21692 z m -30.12747,-0.65278 c -1.77914,-0.46801 -2.3133,-0.92797 -2.32268,-2.00006 -0.003,-0.33955 -0.26448,-0.61736 -0.58113,-0.61736 -0.31664,0 -1.10835,-0.32919 -1.75934,-0.73152 -0.65099,-0.40234 -2.22454,-0.87893 -3.49678,-1.0591 -1.27224,-0.18017 -2.95782,-0.65646 -3.74573,-1.05843 l -1.43257,-0.73084 0.78688,-0.83759 c 0.95629,-1.01793 2.09438,-1.29081 5.79534,-1.38957 1.56224,-0.0417 2.99918,-0.13016 3.1932,-0.1966 0.95334,-0.32646 8.97542,5.27829 8.98948,6.28064 0.0116,0.82723 -1.1225,2.19245 -1.8213,2.19245 -0.37849,0 -0.95555,0.13562 -1.28234,0.30139 -0.35488,0.18 -1.29042,0.11823 -2.32303,-0.15341 z m 203.1152,-11.20072 c -0.41539,-0.22689 -1.47203,-1.28566 -2.34802,-2.35281 -0.87598,-1.06716 -2.75858,-2.9119 -4.18355,-4.09943 -1.42498,-1.18753 -2.57479,-2.38214 -2.5551,-2.65468 0.0293,-0.40806 -0.40644,-0.44316 -2.46945,-0.19882 -4.48377,0.53107 -4.55831,0.52399 -4.79665,-0.45541 -0.17476,-0.71805 -0.27678,-0.7836 -0.54909,-0.35277 -0.18398,0.29104 -0.82942,0.87559 -1.43436,1.29899 -1.12018,0.78403 -1.89872,0.58409 -1.89872,-0.48761 0,-0.80944 -0.72503,-0.49628 -2.55281,1.10261 l -1.7847,1.56122 -3.05658,-0.19803 c -2.0847,-0.13506 -3.31307,-0.0607 -3.8633,0.23374 -0.78257,0.41881 -0.79911,0.39645 -0.55167,-0.74583 0.14033,-0.64768 0.54892,-1.59342 0.90801,-2.10166 0.35909,-0.50823 0.79982,-1.30198 0.97938,-1.76389 0.70228,-1.80656 2.58657,-3.9105 4.10298,-4.58128 2.40048,-1.06185 4.42493,-1.01322 5.79449,0.13919 1.06623,0.89717 1.78809,1.20535 1.78809,0.76338 0,-0.10617 -0.69688,-0.89992 -1.54863,-1.76389 -1.72247,-1.7472 -1.74311,-1.72533 1.54863,-1.64223 1.06782,0.0269 0.98686,-0.032 -0.59902,-0.43587 -1.69326,-0.43126 -3.92169,-1.78101 -3.96759,-2.40315 -0.0106,-0.14552 0.33768,-0.26701 0.77424,-0.26998 0.43657,-0.003 1.03188,-0.1629 1.32292,-0.35538 0.45417,-0.30036 0.42196,-0.43712 -0.22701,-0.96474 -0.41589,-0.33812 -0.86184,-0.96782 -0.99099,-1.39935 -0.12915,-0.43152 -0.70171,-1.11701 -1.27229,-1.52332 -0.62837,-0.44743 -1.03749,-1.05569 -1.03749,-1.54247 0,-0.88328 -0.90141,-2.89016 -1.45058,-3.22957 -0.22077,-0.13644 -0.19812,-0.39487 0.0621,-0.70839 0.31987,-0.38545 0.28269,-0.5423 -0.16979,-0.71593 -0.37623,-0.14437 -0.50553,-0.45513 -0.36872,-0.88617 0.16916,-0.5329 0.0495,-0.64643 -0.60685,-0.57559 -0.60244,0.065 -0.82698,-0.0974 -0.85347,-0.6173 -0.0728,-1.42839 -0.15385,-1.5875 -0.80825,-1.5875 -0.36732,0 -0.76306,-0.24819 -0.87944,-0.55153 -0.11642,-0.30334 -0.34322,-0.47022 -0.50402,-0.37085 -0.16076,0.0994 -0.53608,-0.089 -0.83403,-0.41861 -0.87539,-0.96849 -2.0319,-1.83401 -2.45057,-1.83401 -0.21389,0 -0.96616,-0.30352 -1.67164,-0.67449 -1.73249,-0.91094 -2.47365,-1.14588 -3.92861,-1.24534 -0.67909,-0.0464 -2.26659,-0.59947 -3.52777,-1.22901 -1.26119,-0.62953 -2.76931,-1.22618 -3.35139,-1.32589 -1.24404,-0.2131 -2.3288,-0.74848 -2.82223,-1.39293 -0.22895,-0.29904 -1.69442,-0.54537 -4.17533,-0.70185 -3.17613,-0.20032 -4.02784,-0.38038 -5.03626,-1.0647 -0.66749,-0.45298 -1.58605,-0.91708 -2.04121,-1.03132 -0.95863,-0.2406 -1.81416,-1.61792 -1.50516,-2.423168 0.13332,-0.34742 0.0198,-0.55297 -0.30589,-0.55297 -0.28494,0 -0.51809,0.15875 -0.51809,0.35278 0,0.554648 -0.96019,0.41183 -1.1859,-0.17639 -0.24613,-0.64141 -1.16268,-0.69977 -1.38518,-0.0882 -0.22888,0.62914 -1.51599,-0.18864 -1.39234,-0.88464 0.064,-0.36022 -0.20821,-0.52647 -0.86209,-0.52647 -0.626,0 -1.29709,-0.38218 -1.9456,-1.10799 -0.63246,-0.70783 -0.99,-0.91487 -0.99,-0.57327 0,0.29411 -0.13328,0.53474 -0.29616,0.53474 -0.51565,0 -1.04867,-1.5988 -0.86074,-2.5819 0.1088,-0.5692 0.024,-0.94588 -0.21308,-0.94588 -0.21664,0 -0.35422,0.19844 -0.30572,0.44097 0.0493,0.2464 -0.18418,0.39523 -0.52916,0.33731 -0.68859,-0.11562 -0.85651,0.49431 -0.19664,0.71427 0.27125,0.0904 0.0714,0.5982 -0.56236,1.42914 -0.54071,0.70888 -0.91141,1.49244 -0.82381,1.74123 0.0876,0.2488 -0.14637,0.88892 -0.52,1.42249 -0.50277,0.718098 -0.97546,0.970138 -1.81941,0.970138 -0.62706,0 -1.32853,0.1884 -1.55882,0.41867 -0.6289,0.62892 -2.01972,-0.834448 -2.12665,-2.237598 -0.0475,-0.62303 -0.24959,-1.32951 -0.44912,-1.56997 -0.26847,-0.32344 -0.15099,-0.46722 0.45148,-0.55261 0.53054,-0.0752 0.85365,-0.39206 0.9271,-0.90918 0.062,-0.43656 -0.0416,-0.79375 -0.23008,-0.79375 -0.18856,0 -0.52278,-0.51594 -0.7427,-1.14653 -0.32735,-0.93848 -0.46652,-1.05051 -0.76694,-0.61736 -0.20433,0.2946 -0.43575,0.37279 -0.52204,0.17639 -1.03826,-2.36244 -2.31151,-3.40375 -4.3385,-3.54813 -1.73623,-0.12366 -2.15554,-0.35561 -2.15554,-1.19239 0,-1.45385 4.22183,-1.82475 6.21524,-0.54603 0.63599,0.40796 0.85943,0.40069 1.50131,-0.0489 0.4148,-0.29052 0.9808,-0.96654 1.25783,-1.50227 0.66294,-1.28195 3.11884,-2.10974 3.91051,-1.31807 0.28635,0.28637 0.52066,0.69076 0.52066,0.89865 0,0.20788 0.15875,0.37797 0.35278,0.37797 0.19403,0 0.35313,-0.11906 0.35359,-0.26458 0,-0.14552 0.47667,-0.28149 1.05833,-0.30215 0.96277,-0.0342 1.2318,0.22086 1.09055,1.03393 -0.0279,0.15994 0.11218,0.19026 0.31101,0.0674 0.19886,-0.12289 0.36396,-0.49187 0.36692,-0.81997 0.005,-0.51811 0.0547,-0.52696 0.3804,-0.0674 0.29312,0.41362 0.34114,0.31733 0.21992,-0.44097 -0.12252,-0.76641 -0.0173,-0.97014 0.50155,-0.97014 0.4724,0 0.65662,-0.25802 0.65662,-0.91968 0,-0.71936 -0.13017,-0.86974 -0.59757,-0.69038 -0.52253,0.20052 -0.51544,0.13853 0.0566,-0.49359 0.91747,-1.01379 0.43187,-1.28133 -1.13114,-0.62317 -0.82247,0.34633 -2.93064,0.63765 -5.54814,0.76668 -2.32188,0.11446 -4.38182,0.36832 -4.57765,0.56415 -0.23957,0.23954 -0.54017,0.11197 -0.91866,-0.38984 -0.53542,-0.7098 -0.6253,-0.7197 -1.85826,-0.20453 -1.22132,0.51029 -1.31674,0.50196 -1.6631,-0.14525 -0.20211,-0.37763 -0.58921,-0.68661 -0.86021,-0.68661 -0.68358,0 -2.02132,-1.97127 -2.11244,-3.11288 -0.15748,-1.97232 -0.55838,-2.7659 -1.36179,-2.69545 -0.4239,0.0372 -0.9645,-0.0851 -1.20135,-0.27166 -0.23686,-0.18659 -0.99092,-0.35514 -1.6757,-0.37455 -0.76923,-0.0218 -1.24505,-0.21081 -1.24505,-0.49454 0,-0.59591 -0.28113,-0.58128 -0.90975,0.0473 -0.34678,0.34677 -0.92308,0.44231 -1.82689,0.30285 -0.72616,-0.11205 -1.36444,-0.23861 -1.41838,-0.28125 -0.29622,-0.2342 0.69035,-1.93927 1.12208,-1.93927 0.74556,0 1.85903,-1.566407 2.12633,-2.991255 0.26557,-1.415567 0.77812,-1.762054 3.10611,-2.099744 1.14427,-0.165982 2.19981,-0.654434 3.35138,-1.550832 3.10819,-2.419438 4.87476,-2.713602 8.65287,-1.440854 2.6198,0.882548 3.3764,1.254436 4.34781,2.137043 0.45893,0.416987 1.45556,0.732282 2.64583,0.837054 1.05026,0.09245 2.56956,0.343718 3.37622,0.55838 1.35495,0.360567 1.49793,0.51513 1.87724,2.02928 0.22581,0.901442 0.72764,1.978338 1.11524,2.393108 0.62484,0.66868 0.65987,0.92054 0.30914,2.22302 -0.21756,0.8079 -0.63885,1.56228 -0.93624,1.67639 -0.42005,0.16118 -0.48196,0.49172 -0.27757,1.48114 0.14475,0.70051 0.29934,2.12497 0.34357,3.16545 0.0557,1.30993 0.31038,2.17797 0.82804,2.82222 0.41117,0.51174 1.13447,1.76387 1.6073,2.78251 0.47286,1.01865 0.94036,1.85209 1.03893,1.85209 0.0985,0 0.0835,-0.80791 -0.0335,-1.79536 -0.2062,-1.74126 -0.18711,-1.79174 0.63398,-1.67569 0.65229,0.0922 0.86801,0.3626 0.9398,1.17799 0.25252,2.86915 0.45727,3.42812 1.18583,3.2376 0.55463,-0.14505 0.69243,-0.0212 0.64745,0.58212 -0.15896,2.13136 1.319,3.30119 4.37028,3.45913 1.46752,0.076 1.82016,-0.0488 2.68475,-0.94986 0.5474,-0.57053 1.50636,-1.4342 2.13099,-1.91927 0.62462,-0.48507 1.36221,-1.40665 1.63907,-2.04797 0.27686,-0.64131 1.04013,-1.48271 1.69616,-1.86978 0.85467,-0.50426 1.36775,-1.19031 1.80999,-2.4202 0.68961,-1.91771 1.63474,-2.58428 2.87454,-2.02733 0.59743,0.26838 1.26556,0.17104 2.76543,-0.40292 1.08768,-0.41623 2.30311,-0.7568 2.70094,-0.7568 0.65877,0 0.70502,-0.15437 0.5183,-1.7308 -0.19502,-1.64651 -0.15978,-1.74214 0.72309,-1.96373 0.51047,-0.12811 1.36514,-0.54413 1.89928,-0.92448 0.53414,-0.38035 1.54647,-0.93192 2.24959,-1.2257 1.18562,-0.49538 1.35993,-0.48409 2.40172,0.15549 1.40701,0.86381 5.07583,2.16145 6.11109,2.16145 0.42842,0 1.25057,0.39687 1.82704,0.88194 0.57648,0.48507 1.17694,0.88195 1.33431,0.88195 0.15741,0 1.48389,0.53595 2.94771,1.19102 5.9576,2.66601 6.30844,2.78917 7.35132,2.5806 0.66809,-0.13363 1.45966,0.0212 2.23633,0.43751 0.66121,0.35439 1.91333,0.65274 2.78247,0.663 1.03212,0.0122 2.22228,0.36352 3.43111,1.01285 l 1.85085,0.99418 -0.007,18.520828 c -0.006,17.83921 -0.0321,18.5533 -0.69649,19.40278 -0.94082,1.20277 -0.87785,2.42738 0.18164,3.53328 l 0.88724,0.92605 -0.0935,10.61829 -0.0934,10.61829 -0.75533,-0.41254 z M 381.3337,90.213752 c 0,-0.47186 -0.087,-0.85793 -0.19332,-0.85793 -0.4319,0 -1.90182,1.98451 -1.9122,2.58166 -0.0102,0.59431 0.0665,0.58607 1.04719,-0.11221 0.6792,-0.48365 1.05833,-1.06093 1.05833,-1.61152 z M 214.03489,149.12943 c -0.90246,-0.48969 -0.95472,-0.64634 -0.81757,-2.45046 0.17871,-2.35087 0.27993,-2.52789 1.61294,-2.82067 0.58185,-0.1278 1.31426,-0.4887 1.62758,-0.80201 0.52067,-0.52068 0.65321,-0.52171 1.54137,-0.012 0.53445,0.30673 1.36266,0.48295 1.84048,0.39161 0.51556,-0.0985 1.09629,0.0615 1.42841,0.39357 0.3078,0.30781 0.71122,0.55965 0.89648,0.55965 0.18526,0 0.41398,0.29503 0.50828,0.65562 0.1988,0.76022 1.98803,1.22424 2.64038,0.68475 0.24006,-0.19853 0.69674,-0.26109 1.01485,-0.13902 0.3181,0.12207 0.80537,0.0335 1.08281,-0.19671 0.42621,-0.35373 0.35606,-0.54616 -0.45236,-1.24081 -0.52624,-0.4522 -1.29361,-0.82217 -1.70526,-0.82217 -0.9036,0 -3.13619,-1.95109 -2.93276,-2.56298 0.0797,-0.2396 0.91165,-0.57658 1.84887,-0.74885 1.34752,-0.2477 1.78429,-0.20636 2.08764,0.19759 1.89124,2.51837 1.80876,2.46883 2.98802,1.79482 1.26508,-0.72307 2.19646,-0.3652 2.51038,0.96458 0.1912,0.80994 0.19365,0.80938 0.62792,-0.14374 0.36358,-0.79797 0.62593,-0.93853 1.57997,-0.8465 1.02787,0.0992 1.15432,0.23569 1.24578,1.34508 0.15995,1.94021 0.34204,2.27388 0.96072,1.76043 0.43513,-0.36113 0.52499,-0.31459 0.52499,0.2719 0,0.82898 -1.22155,1.26894 -2.14743,0.77343 -0.38648,-0.20684 -0.93295,-0.20845 -1.44227,-0.004 -0.81148,0.32534 -0.81197,0.329 -0.0471,0.35112 0.42511,0.0123 0.85084,0.14843 0.94607,0.30251 0.0952,0.15408 -0.92728,0.28015 -2.27224,0.28015 h -2.44537 v -1.05491 -1.0549 l -1.14653,1.10742 c -0.73056,0.70564 -1.78648,1.25309 -2.91042,1.50892 -0.97014,0.22083 -2.24014,0.57321 -2.82222,0.78307 -0.58208,0.20987 -2.01083,0.4485 -3.175,0.53029 -1.16417,0.0818 -2.26748,0.29408 -2.45181,0.47176 -0.48591,0.46839 -1.63824,0.37256 -2.74561,-0.22833 z m -5.91508,-1.11047 c -0.48507,-0.0751 -1.12007,-0.23256 -1.41111,-0.34981 -0.61073,-0.24605 -0.99166,-0.32915 -1.85209,-0.40404 -1.00348,-0.0873 -0.70501,-0.65357 0.4682,-0.8882 1.01748,-0.2035 1.07919,-0.30527 0.98405,-1.62296 -0.13486,-1.86774 1.34325,-3.5398 3.12919,-3.5398 1.18754,0 3.27255,0.85123 3.26256,1.33198 -0.0117,0.56207 -0.92521,2.85145 -1.33468,3.34483 -0.23984,0.28899 -0.34313,0.76762 -0.22955,1.06363 0.11359,0.29601 0.0766,0.61168 -0.0821,0.70149 -0.55221,0.31243 -2.05809,0.49865 -2.93446,0.36288 z m 45.58503,-0.51922 c -0.24554,-0.24554 -1.71717,-0.44917 -3.57659,-0.49491 -1.73767,-0.0427 -3.30533,-0.16791 -3.48369,-0.27814 -0.17837,-0.11023 -0.85048,-0.0495 -1.49359,0.13492 -1.55496,0.44596 -2.17446,-0.0825 -2.0358,-1.73671 0.0977,-1.16534 0.28531,-1.35778 2.38365,-2.44474 2.52887,-1.30998 5.2569,-1.58362 6.31567,-0.63351 0.3283,0.29461 0.96074,0.44638 1.46088,0.35058 0.82203,-0.15746 3.92038,1.03501 5.35029,2.05917 0.46358,0.33205 0.71607,0.31454 1.19486,-0.0828 0.86036,-0.71404 4.88121,-0.46139 6.5983,0.41461 1.46667,0.74824 2.51176,0.49643 2.89035,-0.6964 0.1165,-0.36705 1.12687,-1.04798 2.31695,-1.56147 2.14831,-0.92695 2.73926,-1.66894 1.32921,-1.66894 -0.74737,0 -0.75407,-0.0267 -0.15483,-0.61736 0.59669,-0.58816 0.65034,-0.58497 1.13393,0.0674 0.71843,0.96921 0.63342,1.58715 -0.34282,2.4919 -0.46773,0.43348 -0.82492,1.06669 -0.79375,1.40714 0.0725,0.79231 -3.12038,1.91848 -5.47941,1.93263 -0.96008,0.006 -2.14563,0.29001 -2.82222,0.67668 -1.03595,0.59202 -1.41817,0.6233 -3.41065,0.27915 -1.98738,-0.34328 -2.29435,-0.31867 -2.68472,0.2152 -0.52483,0.71774 -4.02553,0.85609 -4.69602,0.1856 z m -56.73087,-0.86392 c 0.17485,-0.81362 0.006,-1.23665 -0.86262,-2.15847 -0.69546,-0.73825 -1.41918,-1.14838 -2.03234,-1.15173 -1.42054,-0.008 -2.55814,-0.74182 -3.0717,-1.98209 l -0.4577,-1.10535 2.91463,0.18184 c 1.97034,0.12293 2.9946,0.0524 3.16147,-0.21757 0.13577,-0.21967 0.91217,-0.39475 1.72534,-0.38907 1.13546,0.008 1.74448,0.25233 2.62501,1.05337 1.69142,1.53872 1.55732,2.60161 -0.4237,3.35817 -1.71081,0.65336 -2.52148,1.37838 -2.71488,2.42805 -0.0685,0.37198 -0.3398,0.74798 -0.6028,0.83556 -0.35886,0.1195 -0.42392,-0.0933 -0.26071,-0.85271 z m 3.6295,-0.35559 c -0.27025,-0.27026 0.0296,-0.83274 0.44386,-0.83274 0.16182,0 0.38559,0.23812 0.49728,0.52916 0.20127,0.52451 -0.49547,0.74925 -0.94114,0.30358 z m 40.67745,-0.10637 c 0,-0.18257 0.15875,-0.43007 0.35278,-0.54998 0.19403,-0.11992 0.35278,0.0294 0.35278,0.33195 0,0.3025 -0.15875,0.54999 -0.35278,0.54999 -0.19403,0 -0.35278,-0.14938 -0.35278,-0.33196 z m -51.63661,-0.55906 c -0.13986,-0.36447 -0.63613,-0.52245 -1.53705,-0.4893 -1.29915,0.0478 -6.39709,-1.59864 -8.2641,-2.66898 -1.19555,-0.68539 -3.10014,-0.68826 -4.074,-0.006 -0.94449,0.66155 -2.96808,0.73443 -5.0438,0.18167 -3.1154,-0.82964 -6.10848,-1.04991 -6.94896,-0.5114 -0.49985,0.32026 -0.85402,0.36949 -0.99674,0.13856 -0.12177,-0.19701 -0.40786,-0.32814 -0.63576,-0.29138 -0.2279,0.0367 -0.81125,-0.0325 -1.29631,-0.15393 -0.48507,-0.12141 -1.79713,-0.29811 -2.91568,-0.39268 -1.11856,-0.0946 -2.18821,-0.2674 -2.37702,-0.38409 -0.50064,-0.30941 -4.16129,-1.23409 -4.88558,-1.23409 -0.34036,0 -1.25653,-0.46896 -2.03593,-1.04214 -1.3619,-1.00155 -6.6215,-2.46475 -7.10865,-1.97759 -0.10948,0.10948 -0.48731,-0.0618 -0.83963,-0.38067 -0.49848,-0.45111 -1.04706,-0.53157 -2.47295,-0.36269 -1.12931,0.13374 -2.0111,0.0687 -2.29815,-0.16954 -0.33927,-0.28157 -0.74754,-0.26985 -1.50314,0.0431 -0.57055,0.23633 -1.1877,0.33678 -1.37146,0.22321 -0.18375,-0.11357 -0.53027,0.0299 -0.77004,0.3188 -0.23977,0.2889 -1.01182,0.52531 -1.71566,0.52536 -1.32631,7e-5 -5.0777,-1.09986 -6.92417,-2.0302 -0.58208,-0.29329 -1.61396,-0.6732 -2.29305,-0.84425 -1.01041,-0.25451 -9.02566,-1.345 -9.96597,-1.3559 -0.4939,-0.006 -0.26742,-0.96264 0.44097,-1.86321 0.99257,-1.26186 0.88204,-1.66763 -0.45429,-1.66763 -0.77486,0 -1.56529,-0.34654 -2.38125,-1.044 -1.25341,-1.07135 -2.24732,-1.34315 -2.63251,-0.71989 -0.26647,0.43115 -2.99861,0.47449 -2.99861,0.0476 0,-0.16787 0.30591,-0.69412 0.67982,-1.16945 0.65416,-0.83164 2.13407,-4.72574 2.15024,-5.65797 0.004,-0.24866 0.29657,-0.82753 0.64946,-1.28639 0.61348,-0.79772 0.71752,-0.81504 2.3734,-0.39531 0.95249,0.24143 2.32711,0.45811 3.05471,0.48151 0.72761,0.0234 1.32292,0.14234 1.32292,0.26432 0,0.12198 0.49914,0.42853 1.1092,0.68123 1.01294,0.41957 1.16381,0.39201 1.73839,-0.31757 0.36937,-0.45616 0.72114,-0.6282 0.85189,-0.41664 0.1225,0.1982 1.15767,0.36036 2.30039,0.36036 1.72414,0 2.23869,0.14923 3.02402,0.87706 0.68764,0.63728 1.18081,0.81822 1.80391,0.66183 0.50551,-0.12688 1.43981,0.0473 2.2759,0.42435 1.139,0.51362 1.55065,0.55697 2.09004,0.22012 1.00366,-0.6268 1.28623,-0.53588 2.62776,0.84554 0.80735,0.83134 1.22849,1.60262 1.22849,2.24985 0,1.1959 0.70612,1.84165 2.0899,1.91125 0.57007,0.0287 1.15188,0.16752 1.29292,0.30855 0.14104,0.14104 0.46948,0.0796 0.72986,-0.13647 0.34832,-0.28909 0.60099,-0.28706 0.95613,0.008 0.44251,0.36724 1.40141,0.44682 4.2798,0.35516 0.58209,-0.0185 2.71222,0.13104 4.73364,0.3324 4.46799,0.44506 5.04247,0.22747 6.76162,-2.56102 1.34019,-2.17379 2.34481,-2.52994 3.41306,-1.20996 1.76034,2.17516 2.55461,2.50999 3.92456,1.65444 0.53484,-0.33401 0.867,-0.25844 1.80748,0.41124 0.63373,0.45126 1.6464,0.84159 2.25038,0.86742 0.60399,0.0258 1.4707,0.25145 1.92603,0.50138 0.56474,0.30998 1.46444,0.38053 2.83059,0.22197 1.7347,-0.20133 2.13401,-0.12916 2.98389,0.53937 0.86918,0.68369 1.02932,0.70986 1.40275,0.22924 0.34116,-0.43908 1.49808,-0.56374 6.066,-0.65362 3.10445,-0.0611 5.84289,0.0153 6.08542,0.16973 0.68809,0.43814 0.52229,0.8478 -0.44097,1.08956 -0.48507,0.12175 -0.88194,0.45249 -0.88194,0.73499 0,0.37782 -0.26871,0.45988 -1.01629,0.31037 -0.66067,-0.13214 -1.34336,0.0111 -1.95106,0.40923 -0.79871,0.52334 -1.38253,0.57304 -4.0108,0.34146 -4.1831,-0.36858 -4.14326,-0.3756 -5.31646,0.93744 l -1.03705,1.16066 0.98289,0.59774 c 0.54059,0.32875 1.08896,0.76935 1.21859,0.9791 0.12964,0.20976 0.60303,0.38137 1.05198,0.38137 0.44896,0 1.55673,0.32754 2.46171,0.72785 1.46846,0.64957 1.85596,0.68415 3.60293,0.32148 1.07662,-0.22351 3.21387,-0.41995 4.74945,-0.43654 2.43152,-0.0263 2.90075,0.0721 3.63471,0.76157 1.20379,1.1309 1.41177,2.61577 0.56168,4.01 -0.99686,1.63495 -0.87119,2.53685 0.57682,4.13963 1.26836,1.40392 1.27063,1.41212 0.39052,1.41212 -0.48688,0 -0.97819,-0.24221 -1.09179,-0.53824 z m 49.16717,-0.70019 c 0,-1.11324 0.0999,-1.26539 0.76611,-1.16735 0.89222,0.13128 1.32449,0.99467 0.49801,0.99467 -0.30721,0 -0.55857,0.22876 -0.55857,0.50835 0,0.27959 -0.15875,0.60646 -0.35278,0.72637 -0.21042,0.13006 -0.35277,-0.29849 -0.35277,-1.06204 z m 34.57222,-0.39837 c 0,-0.43104 1.23871,-1.16289 1.94028,-1.14635 0.54447,0.0128 0.48407,0.0975 -0.26459,0.37096 -0.53357,0.19488 -0.97013,0.49984 -0.97013,0.6777 0,0.17786 -0.15875,0.32338 -0.35278,0.32338 -0.19403,0 -0.35278,-0.10156 -0.35278,-0.22569 z m 4.49792,-0.0185 c -0.72005,-0.18699 -0.73962,-0.27932 -0.25218,-1.19011 0.20086,-0.3753 0.61472,-0.68236 0.91969,-0.68236 0.33063,0 0.4779,-0.19962 0.36478,-0.49441 -0.11023,-0.28725 0.0769,-0.56414 0.4467,-0.66083 0.48259,-0.1262 0.59465,-0.007 0.46361,0.4944 -0.22666,0.86678 0.5041,0.86056 0.77934,-0.007 0.2483,-0.78233 1.48684,-1.19458 2.27083,-0.75584 0.4517,0.25279 0.37882,0.38387 -0.41435,0.74526 -0.52935,0.24119 -0.96245,0.65812 -0.96245,0.92652 0,0.26908 -0.27697,0.44151 -0.61736,0.38435 -0.40537,-0.0681 -0.60054,0.10834 -0.56837,0.5137 0.027,0.33955 -0.1585,0.61736 -0.41211,0.61736 -0.25362,0 -0.67254,0.0605 -0.93095,0.13446 -0.2584,0.0739 -0.74763,0.0623 -1.08718,-0.0259 z m 7.01617,-0.63776 c -0.11168,-0.29104 -0.4656,-0.52917 -0.78649,-0.52917 -0.48625,0 -0.50806,-0.0908 -0.13094,-0.54522 0.24887,-0.29987 0.65934,-0.46584 0.91216,-0.36883 0.25282,0.097 0.78523,-0.2375 1.18314,-0.74336 1.06286,-1.3512 1.31638,-0.68446 0.43194,1.13598 -0.79923,1.64505 -1.26504,1.94905 -1.60981,1.0506 z m 2.9498,-0.47056 c 0,-0.1521 0.22046,-0.57804 0.48992,-0.94654 0.26946,-0.36851 0.42988,-0.83541 0.35649,-1.03757 -0.0734,-0.20215 0.0115,-0.59547 0.18874,-0.87404 0.2423,-0.38089 0.4401,-0.40862 0.7977,-0.11184 0.29666,0.2462 1.41926,0.33405 2.98455,0.23354 2.12432,-0.1364 2.54413,-0.0696 2.73794,0.43542 0.12589,0.32808 0.10463,0.70532 -0.0473,0.83829 -0.51347,0.44957 -3.5689,1.12923 -3.96789,0.88264 -0.21786,-0.13464 -0.58759,-0.0947 -0.82162,0.0887 -0.57437,0.45017 -2.71858,0.83774 -2.71858,0.4914 z m -12.17083,-0.75321 -1.05834,-0.21003 0.92043,-0.61402 c 0.96414,-0.64318 2.07818,-0.49097 2.07818,0.28393 0,0.60964 -0.66173,0.79385 -1.94027,0.54012 z m 153.01736,0.0929 c -0.96241,-0.18538 -1.00037,-0.51304 -0.14862,-1.28386 0.87968,-0.7961 1.28975,-0.73429 1.74409,0.2629 0.55746,1.22349 0.30265,1.38655 -1.59547,1.02096 z m -208.47593,-0.89854 c -0.31978,-0.70184 -0.2725,-0.91449 0.28004,-1.25956 1.42948,-0.89272 1.84742,-0.16128 0.73446,1.28537 l -0.62977,0.81859 z m 130.77662,0.50596 c 0,-0.42635 0.66929,-0.92343 0.91395,-0.67878 0.0888,0.0888 -0.0805,0.36226 -0.37625,0.60769 -0.33528,0.27825 -0.5377,0.30502 -0.5377,0.0711 z M 235.2837,140.86138 c 0,-0.68763 0.37418,-0.91934 0.79884,-0.49468 0.28262,0.28261 -0.0873,1.20023 -0.48381,1.20023 -0.17326,0 -0.31503,-0.3175 -0.31503,-0.70555 z m 87.6027,0.45994 c -0.42247,-0.0822 -0.94603,-0.36389 -1.16348,-0.62589 -0.32247,-0.38856 -0.0996,-0.4719 1.20911,-0.45212 0.88244,0.0133 1.60445,0.0655 1.60445,0.11592 0,0.36441 -0.47124,1.1986 -0.65511,1.15966 -0.12476,-0.0264 -0.57249,-0.11533 -0.99497,-0.19757 z m 9.58758,-0.10717 c -0.62521,-0.26866 -0.59508,-0.30601 0.26458,-0.32798 0.53358,-0.0137 0.97014,0.13396 0.97014,0.32798 0,0.41406 -0.27115,0.41406 -1.23472,0 z m 19.93194,-0.30958 c 0,-0.61252 0.8926,-1.06954 1.42293,-0.72857 0.45318,0.29133 0.4517,0.3757 -0.012,0.67998 -0.66008,0.43331 -1.41111,0.45917 -1.41111,0.0486 z m -12.6691,-2.30336 c -0.97265,-1.03534 -0.71755,-1.62039 0.70655,-1.62039 1.16122,0 1.70747,0.81187 1.14558,1.70265 -0.54539,0.86461 -0.98075,0.84528 -1.85213,-0.0823 z m -37.77814,-0.0139 c 10e-6,-0.1836 0.41547,-0.93331 0.92324,-1.66602 0.79341,-1.14489 1.02184,-1.27942 1.62464,-0.95681 0.83923,0.44915 2.86753,0.12438 4.0461,-0.64785 0.64639,-0.42352 1.03013,-0.4667 1.62412,-0.18271 0.42776,0.20451 1.06563,0.46449 1.41747,0.57772 0.77238,0.24859 0.45543,0.91643 -0.43492,0.91643 -0.34953,0 -1.19691,0.38098 -1.88308,0.84662 -0.68616,0.46565 -1.62113,0.96751 -2.0777,1.11525 -1.20854,0.39106 -5.23988,0.38904 -5.23987,-0.002 z m 52.3303,-0.0408 c -0.3393,-0.88428 1.12046,-5.08378 1.77571,-5.10836 0.37003,-0.0139 1.23853,-0.93398 2.48331,-2.63089 0.49315,-0.67224 0.54716,-0.67641 1.14392,-0.0882 0.44693,0.44055 0.49071,0.61736 0.15285,0.61736 -0.35207,0 -0.41754,0.34972 -0.25537,1.36395 0.22906,1.43233 0.16453,1.56203 -2.42097,4.86767 -1.15994,1.48299 -2.50981,1.9417 -2.87945,0.97847 z m -1.88306,-2.27119 c 0,-0.19403 0.2475,-0.35278 0.54999,-0.35278 0.3025,0 0.45187,0.15875 0.33196,0.35278 -0.11991,0.19402 -0.36742,0.35277 -0.54999,0.35277 -0.18257,0 -0.33196,-0.15875 -0.33196,-0.35277 z m -34.925,-1.40813 c 0,-0.75171 0.26103,-0.86814 0.95607,-0.42643 0.30799,0.19573 0.23428,0.39159 -0.26458,0.70314 -0.60061,0.37509 -0.69149,0.33872 -0.69149,-0.27671 z m 35.85105,-0.95844 c -0.11074,-0.11071 -0.11688,-0.3379 -0.0138,-0.50486 0.24765,-0.40073 1.20431,-0.39163 1.20431,0.0115 0,0.38939 -0.91535,0.7687 -1.19062,0.4934 z m 8.24092,-2.94139 -0.87669,-0.67358 0.80483,-0.008 c 0.44263,-0.004 0.89881,0.23713 1.01371,0.53654 0.32134,0.83734 0.0197,0.88374 -0.94185,0.14489 z m -107.77788,0.0317 c 0.11468,-0.18555 0.44155,-0.24794 0.72638,-0.13864 0.72923,0.27983 0.6433,0.47602 -0.20851,0.47602 -0.39951,0 -0.63255,-0.15182 -0.51787,-0.33738 z m 75.34954,-0.16533 c -0.37716,-0.45445 -0.35513,-0.5853 0.12991,-0.77142 0.77018,-0.29555 1.04914,0.0235 0.64772,0.74079 -0.29134,0.5206 -0.36847,0.52363 -0.77763,0.0306 z m -140.0416,-0.33931 c -0.28856,-0.34768 -0.30352,-0.57838 -0.0478,-0.73644 0.20482,-0.12658 0.47027,0.0249 0.58988,0.33659 0.29781,0.77607 -0.0295,1.0175 -0.5421,0.39985 z m 61.86485,-0.23979 c -0.12789,-0.20693 -0.15998,-0.4488 -0.0713,-0.53747 0.24606,-0.24605 1.32054,0.24108 1.32054,0.59869 0,0.4416 -0.96778,0.39418 -1.24923,-0.0612 z m -51.84382,-2.06027 c -0.98336,-0.21963 -1.00211,-0.25182 -0.26459,-0.45439 0.9272,-0.25468 2.20486,0.0134 2.20486,0.46262 0,0.34457 -0.36771,0.34301 -1.94027,-0.008 z m 184.54772,-0.28449 c -0.56853,-0.14601 -0.62963,-0.39587 -0.43825,-1.79202 0.12227,-0.8923 0.37609,-1.71738 0.56402,-1.83351 0.21872,-0.13519 0.20849,-0.69341 -0.0286,-1.55153 -0.20355,-0.73721 -0.30501,-1.40544 -0.22549,-1.48498 0.22659,-0.22657 3.27409,2.78196 3.54263,3.49729 0.16404,0.43695 -0.11413,1.082 -0.87475,2.02847 -1.1104,1.38177 -1.28309,1.45902 -2.53972,1.13628 z m 44.43879,-0.66972 c -0.15964,-0.41605 -0.0675,-0.51062 0.34388,-0.35277 0.30914,0.11861 0.63779,0.21566 0.7304,0.21566 0.0926,0 0.0702,0.15875 -0.0497,0.35278 -0.3236,0.52359 -0.77759,0.42803 -1.0246,-0.21567 z m -39.36306,-0.75447 c 0.01,-0.48283 0.65839,-1.30588 0.86569,-1.09861 0.27788,0.2779 -0.16479,1.3632 -0.55605,1.3632 -0.17325,0 -0.3126,-0.11907 -0.30964,-0.26459 z m -1.89275,-2.97509 c -0.44292,-0.4828 -0.53721,-0.82688 -0.29341,-1.07066 0.24377,-0.24377 0.0764,-0.6025 -0.52084,-1.11621 -0.85446,-0.73497 -0.86519,-0.80018 -0.36851,-2.24171 0.47826,-1.38819 0.46856,-1.49836 -0.14947,-1.6945 -0.86551,-0.2747 -0.85126,-0.8678 0.0208,-0.8678 0.37497,0 0.78257,-0.3175 0.90572,-0.70555 0.12316,-0.38806 0.37201,-0.70556 0.55295,-0.70556 0.18094,0 0.329,-0.22876 0.329,-0.50835 0,-0.27959 0.14442,-0.5976 0.32095,-0.7067 0.55161,-0.34092 1.44293,0.20216 1.44293,0.87919 0,0.35585 0.13709,0.73173 0.30466,0.83529 0.44673,0.27609 0.37815,3.16201 -0.0821,3.45463 -0.28346,0.18024 -0.27094,0.37198 0.045,0.68792 0.60565,0.60565 0.56007,2.74165 -0.0636,2.98098 -0.27588,0.10586 -0.8315,0.0159 -1.23473,-0.19987 -0.50916,-0.27252 -0.7331,-0.27743 -0.7331,-0.0161 0,0.20694 0.23812,0.46764 0.52916,0.57932 0.63832,0.24495 0.71099,1.19803 0.0882,1.15651 -0.24254,-0.0162 -0.73466,-0.34954 -1.09361,-0.74083 z m -137.5057,-0.67028 c -0.21601,-4.01813 -0.12585,-5.62156 0.28453,-5.06031 0.28253,0.38636 0.37307,1.43808 0.26514,3.07982 -0.1643,2.49923 -0.46378,3.57826 -0.54967,1.98049 z m 135.3837,-1.40732 c -0.9272,-0.72934 -1.25553,-1.73828 -0.56568,-1.73828 0.2001,0 0.46235,0.27781 0.58279,0.61736 0.12041,0.33955 0.45752,0.89518 0.74916,1.23472 0.71325,0.83048 0.36922,0.77939 -0.76627,-0.1138 z m -14.95245,-2.69372 c -0.47872,-0.17553 -0.62823,-2.92511 -0.15907,-2.92511 0.15505,0 0.48853,0.57139 0.74108,1.26977 0.46366,1.28229 0.22807,1.95237 -0.58201,1.65534 z M 93.114257,118.27736 c 0,-0.19746 -1.123943,-1.41928 -2.497649,-2.71517 -1.373706,-1.29588 -2.809628,-2.96769 -3.190939,-3.71512 -0.381307,-0.74742 -0.96393,-1.45473 -1.294712,-1.57178 -0.330782,-0.11705 -0.839548,-0.40067 -1.130589,-0.63027 -0.291042,-0.22959 -1.027049,-0.61412 -1.63557,-0.8545 -0.60852,-0.24038 -1.917682,-1.21902 -2.909245,-2.17477 -0.991567,-0.95573 -2.111869,-1.73771 -2.489567,-1.73771 -0.377698,0 -0.923431,-0.33795 -1.212741,-0.75099 -0.289309,-0.41305 -1.221542,-1.24649 -2.071631,-1.85209 -2.532341,-1.80403 -3.792358,-2.965278 -3.792358,-3.495108 0,-1.6525 -0.848787,-2.82342 -2.611861,-3.60313 -2.060928,-0.91144 -4.160266,-3.07421 -5.586642,-5.75544 -0.685055,-1.28773 -1.313772,-1.96196 -2.158756,-2.31502 -1.705857,-0.71275 -2.342741,-1.80716 -2.342741,-4.02574 0,-2.1192 -0.262954,-2.74993 -2.090166,-5.01359 -0.704783,-0.87312 -1.49823,-2.2225 -1.763219,-2.99861 -0.264989,-0.77611 -0.855758,-1.76071 -1.312817,-2.18801 -0.458575,-0.42872 -0.831021,-1.186021 -0.831021,-1.689749 0,-1.399201 -1.158751,-3.306254 -3.508385,-5.774044 -1.174831,-1.233911 -2.136059,-2.353282 -2.136059,-2.487485 0,-0.260626 -5.308163,-5.090481 -6.119206,-5.567818 -0.265917,-0.156506 -0.688838,-1.157679 -0.939818,-2.224832 -0.250984,-1.067152 -0.729812,-2.58161 -1.064066,-3.365457 -0.334253,-0.783848 -0.722609,-1.974473 -0.863014,-2.645833 -0.140402,-0.671361 -0.579311,-1.935029 -0.97535,-2.808154 -1.820929,-4.014487 -2.340057,-4.764295 -3.907925,-5.644444 -0.864085,-0.485069 -2.105402,-1.238539 -2.758482,-1.674375 -0.65308,-0.435839 -1.678751,-0.793027 -2.279269,-0.79375 -1.46899,-0.0018 -2.259538,-0.958416 -2.259538,-2.734271 0,-1.941682 -0.256449,-2.490784 -1.452029,-3.109041 -0.592307,-0.306292 -1.383631,-1.254153 -1.90347,-2.280006 -0.489346,-0.96568 -1.051437,-1.755779 -1.249091,-1.755779 -0.197655,0 -0.659393,-0.699921 -1.026085,-1.555379 -0.38094,-0.888697 -0.98041,-1.654941 -1.398574,-1.787659 -0.402524,-0.127759 -0.731862,-0.456689 -0.731862,-0.730959 0,-0.524659 -0.782781,-0.788159 -2.81044,-0.946052 -1.003441,-0.07814 -1.46394,-0.411822 -2.565666,-1.859117 -0.738499,-0.970139 -1.477635,-1.730943 -1.642524,-1.690677 -0.16489,0.04026 -1.8278602,-1.43757 -3.6954902,-3.284075 -3.583165,-3.542637 -5.226837,-6.205763 -5.647432,-9.1501304 -0.192339,-1.346465 -0.140871,-1.451355 0.935256,-1.905935 1.267912,-0.53559 3.586765,-0.49815 4.665,0.0753 0.38719,0.20594 1.369621,1.040064 2.183179,1.853622 0.9961492,0.996148 1.8030862,1.489737 2.4710182,1.511475 3.250415,0.105781 4.320154,0.08181 5.662817,-0.126912 1.161361,-0.180534 1.739419,-0.07843 2.584223,0.45646 1.016986,0.643911 1.185873,0.653905 2.579821,0.152643 l 1.491596,-0.536374 1.714094,1.6423894 c 0.942752,0.903315 2.005821,1.734982 2.362377,1.848149 0.409041,0.129823 0.648283,0.542453 0.648283,1.118119 0,0.60948 0.460478,1.337472 1.387096,2.19292 1.142077,1.054361 1.406916,1.552543 1.499305,2.820299 0.06753,0.926708 0.322892,1.643923 0.641376,1.801421 0.291042,0.143923 1.131962,0.556965 1.868711,0.917871 0.73675,0.360906 1.57342,1.012726 1.859265,1.448488 0.285845,0.435762 1.508676,1.290232 2.717398,1.898823 1.208726,0.608591 2.673932,1.489085 3.256016,1.956653 0.582083,0.467572 1.455208,1.168362 1.940277,1.557317 0.48507,0.388955 1.726474,1.347198 2.758673,2.12943 1.728703,1.310061 1.86919,1.524395 1.781165,2.717468 -0.06356,0.861543 0.04631,1.265703 0.328133,1.20704 0.233034,-0.04851 0.423696,0.14993 0.423696,0.440972 0,0.773822 0.62084,0.646285 0.883571,-0.181511 0.327346,-1.031381 0.76714,-0.581773 1.921736,1.964637 0.947233,2.089076 1.171332,2.325208 2.955555,3.114276 1.184804,0.523977 2.021381,1.139815 2.16559,1.594175 0.12924,0.4072 0.385166,0.740367 0.568723,0.740367 0.183558,0 0.07623,-0.595312 -0.238513,-1.322916 -1.040677,-2.405811 -1.035307,-2.557639 0.09046,-2.557639 0.561591,0 1.279896,0.277812 1.596232,0.617361 0.316332,0.339549 0.979854,0.897484 1.474491,1.239862 0.53721,0.371842 0.990477,1.108315 1.125682,1.829022 0.287726,1.533719 1.12116,2.283443 2.846748,2.560814 0.781229,0.125578 2.148339,0.808471 3.191421,1.594171 1.542433,1.161831 1.861626,1.603086 2.063101,2.852046 0.349907,2.169054 2.650699,4.476168 4.463909,4.476168 1.733621,0 3.819074,0.998872 3.819074,1.829227 0,0.352121 -0.65067,1.290887 -1.445937,2.086154 -1.065573,1.065573 -1.251173,1.390375 -0.705556,1.234723 0.407211,-0.11617 1.053469,-0.29989 1.436134,-0.408267 0.382661,-0.108376 1.261512,-0.858015 1.952999,-1.665862 1.085575,-1.268247 1.339815,-1.408299 1.86189,-1.025652 0.33255,0.243738 1.203851,0.701492 1.936225,1.017228 1.004778,0.433172 1.502618,0.960716 2.028472,2.149489 0.886742,2.004631 0.880526,2.068713 -0.227676,2.346854 -1.096955,0.275318 -1.71825,0.840073 -2.040237,1.85457 -0.207786,0.654678 -0.102987,0.736187 0.886005,0.689102 1.232687,-0.05868 1.800581,0.6867 0.812161,1.065992 -0.340861,0.130803 -0.889843,0.507915 -1.219962,0.838034 -0.330115,0.330116 -0.763661,0.659744 -0.963432,0.732505 -0.199771,0.07276 -0.418053,0.507887 -0.48507,0.966949 -0.0995,0.681581 0.287419,1.122183 2.109647,2.402343 1.713163,1.203536 2.341065,1.476745 2.703205,1.176196 0.350263,-0.290692 0.812151,-0.249234 1.794069,0.16104 0.727301,0.303886 1.63412,0.453573 2.015148,0.332641 0.939716,-0.298256 1.295795,0.377892 1.317347,2.501449 0.0098,0.97014 0.244778,2.16077 0.522068,2.64584 0.277291,0.48507 0.509793,1.40725 0.516665,2.04929 0.0079,0.7351 0.15192,1.08118 0.389025,0.93464 0.208259,-0.12871 0.465226,0.1065 0.575014,0.52634 0.12585,0.48125 0.571726,0.83368 1.218322,0.96301 0.560902,0.11218 1.102381,0.33754 1.203289,0.50081 0.221672,0.35868 -0.805299,2.43424 -1.204443,2.43424 -0.155441,0 -0.211257,0.48622 -0.124037,1.08048 l 0.158581,1.08048 0.670035,-1.10179 c 0.528919,-0.86973 0.828329,-1.05154 1.421609,-0.86324 0.413364,0.13119 1.402056,0.22135 2.19709,0.20035 0.795037,-0.021 2.031477,0.0524 2.747657,0.16304 1.08596,0.16782 1.32023,0.35729 1.41111,1.14127 0.0715,0.61646 0.44291,1.09934 1.07911,1.40286 0.65677,0.31333 0.97014,0.73392 0.97014,1.30208 0,0.46159 0.48479,1.61911 1.0773,2.57226 l 1.07729,1.733 -0.9009,1.69437 c -1.04642,1.96803 -1.12514,2.87346 -0.32657,3.75587 0.53103,0.58677 0.52855,0.73115 -0.0328,1.9141 -0.44356,0.934728 -0.54583,1.721728 -0.37958,2.920918 0.45001,3.24581 0.40512,6.91329 -0.1,8.16679 -0.33402,0.829 -0.42848,1.89004 -0.28794,3.23463 0.24364,2.33098 -0.29126,4.32252 -1.07969,4.01997 -0.28377,-0.1089 -0.66173,-0.198 -0.83989,-0.198 -0.17816,0 -0.32392,-0.28284 -0.32392,-0.62853 0,-0.87335 -2.93867,-1.77067 -3.707958,-1.13222 -0.288961,0.23982 -0.525382,0.65472 -0.525382,0.922 0,0.64224 0.08991,0.66651 -2.77374,-0.74875 -2.266558,-1.12016 -3.223482,-1.45042 -3.223482,-1.11253 0,0.0672 0.221915,0.58314 0.493144,1.14653 0.980659,2.03698 1.032645,2.61184 0.236185,2.61184 -0.401133,0 -0.729329,-0.16156 -0.729329,-0.35902 z m 278.722073,-0.17015 c -0.0363,-0.77665 2.08936,-5.46805 2.47759,-5.46805 0.48179,0 -0.34706,2.55621 -1.08282,3.33938 -0.41426,0.44095 -0.89013,1.25905 -1.05748,1.81798 -0.2189,0.73109 -0.31352,0.81827 -0.33729,0.31069 z m -130.55541,-1.94028 c 0,-0.19402 -0.23812,-0.35277 -0.52917,-0.35277 -0.29104,0 -0.52916,-0.17574 -0.52916,-0.39053 0,-0.21478 -0.23571,-0.30007 -0.52379,-0.18952 -0.82507,0.31661 -1.3428,-0.99786 -0.92244,-2.34199 1.09634,-3.50566 1.3092,-4.48998 1.05866,-4.89537 -0.15269,-0.24706 -0.10611,-0.65587 0.10352,-0.90846 0.52547,-0.63316 1.05493,-3.15649 1.01893,-4.85608 -0.0164,-0.77611 -0.37187,-2.497288 -0.78984,-3.824838 -0.88007,-2.7952 -1.69104,-3.43959 -3.42492,-2.72139 -1.7907,0.74173 -3.25794,-0.60146 -3.6951,-3.38267 -0.17674,-1.12443 -0.108,-1.50899 0.29757,-1.66463 0.74474,-0.28578 0.71006,-2.34119 -0.0395,-2.34119 -0.37201,0 -0.4933,-0.19184 -0.35278,-0.55802 0.11777,-0.30691 0.21413,-0.70379 0.21413,-0.88195 0,-0.17815 0.27781,-0.32894 0.61736,-0.33507 1.17817,-0.0213 2.55764,-1.61699 2.55764,-2.95857 0,-1.60285 0.97199,-3.62819 1.85162,-3.85822 0.37885,-0.0991 0.58418,-0.34943 0.4563,-0.55635 -0.22545,-0.36477 -0.61102,-3.53913 -0.55997,-4.61015 0.0139,-0.29105 0.0311,-0.8318 0.0383,-1.20167 0.007,-0.36988 0.32264,-1.06598 0.70092,-1.546882 0.37828,-0.480907 0.68932,-1.051405 0.69121,-1.267774 0.002,-0.216369 0.54075,-1.069248 1.19748,-1.895291 0.81846,-1.029462 1.31297,-2.13915 1.57209,-3.527778 0.20792,-1.114235 0.47732,-2.367767 0.59866,-2.785625 0.16609,-0.571955 0.0383,-0.817619 -0.51718,-0.993909 -0.4058,-0.128796 -0.73781,-0.382224 -0.73781,-0.563178 0,-0.437455 0.607,-0.421093 0.88194,0.02378 0.53882,0.87182 0.96502,0.279488 0.78179,-1.086538 -0.21348,-1.59167 0.50071,-3.75745 1.34603,-4.081833 0.28491,-0.109329 0.51802,-0.575013 0.51802,-1.034852 0,-0.506987 0.35423,-1.068169 0.89997,-1.425755 0.49499,-0.324326 1.16205,-1.082047 1.48237,-1.683826 l 0.58238,-1.09414 0.1956,1.058333 c 0.13945,0.754528 0.42401,1.090853 0.99128,1.171614 1.08429,0.154369 3.60951,-2.534814 3.60951,-3.843877 0,-0.805681 0.18125,-0.968999 1.2718,-1.14597 0.87103,-0.141351 1.54894,-0.0248 2.15127,0.369866 0.70203,0.459987 1.01388,0.492312 1.54564,0.160225 0.96198,-0.600767 1.4592,-0.511683 1.22702,0.219844 -0.111,0.349726 0.0183,0.936935 0.2874,1.304914 0.4489,0.613897 0.64492,0.633106 2.37811,0.233038 1.69201,-0.390564 1.93548,-0.372279 2.33597,0.175433 0.30533,0.417558 0.56175,0.496781 0.80869,0.249848 0.23518,-0.235187 1.06716,-0.255461 2.37993,-0.058 1.11008,0.166977 2.3484,0.353103 2.75181,0.413618 0.4034,0.06051 1.23365,0.479827 1.84498,0.931806 1.08817,0.804517 1.1268,0.807957 1.83869,0.163703 0.82831,-0.74961 3.31139,-0.840726 4.90643,-0.180043 0.53287,0.220726 1.11369,0.36601 1.2907,0.322855 0.17701,-0.04316 0.9291,0.04754 1.6713,0.201545 1.10546,0.22938 1.6905,0.113027 3.23547,-0.64347 1.03729,-0.507915 2.19913,-1.321573 2.58186,-1.808131 0.42048,-0.53456 1.05483,-0.88465 1.60295,-0.88465 1.18599,0 3.50986,-2.015423 3.2906,-2.853849 -0.22307,-0.853041 1.72793,-2.725377 2.27247,-2.180836 0.21639,0.21639 0.57254,0.326407 0.79143,0.244478 0.49794,-0.186372 1.34112,1.535744 0.8888,1.815296 -0.17848,0.110306 -0.66015,0.858463 -1.07037,1.662564 -0.41022,0.804104 -1.58511,2.281371 -2.61086,3.282823 -1.02574,1.001447 -2.198,2.473579 -2.60502,3.2714 -1.00562,1.97117 -1.94552,2.494904 -5.39182,3.004449 -1.61963,0.239469 -3.14547,0.559424 -3.39075,0.711017 -0.24528,0.151592 -0.65345,0.10342 -0.90705,-0.107051 -0.2536,-0.210467 -1.09245,-0.357932 -1.86411,-0.327695 -0.98802,0.03871 -1.74021,-0.194324 -2.54301,-0.787862 -1.069,-0.790339 -1.44081,-0.84358 -5.96975,-0.854813 -2.65636,-0.0066 -5.24435,0.13613 -5.7511,0.317144 -0.73113,0.261172 -1.19656,0.159032 -2.25437,-0.494735 -1.22727,-0.758494 -1.36717,-0.777163 -1.76338,-0.235314 -0.30407,0.415841 -0.95629,0.588539 -2.22272,0.588539 -0.9858,0 -1.88363,0.147652 -1.99516,0.328115 -0.27546,0.445703 -1.45135,0.281207 -3.43952,-0.48116 -2.05693,-0.78873 -2.92404,-0.585393 -4.74278,1.112181 -1.74951,1.632959 -2.80607,4.57756 -2.47202,6.889415 0.52849,3.657437 1.74266,5.909782 3.1858,5.909782 0.9051,0 1.63245,0.611142 1.63245,1.371643 0,0.973807 1.55444,2.856759 2.36043,2.859269 0.42511,0.001 0.87104,0.16116 0.99096,0.35519 0.4508,0.72942 1.86814,0.35722 2.52299,-0.66256 0.70717,-1.10124 2.79616,-3.453571 3.75763,-4.231319 0.4915,-0.397577 0.69703,-0.402431 1.14922,-0.02716 0.32091,0.266333 1.37471,0.441582 2.5256,0.42001 1.66626,-0.03122 2.11291,-0.185843 2.85791,-0.989295 0.86894,-0.937111 0.93266,-0.948527 4.0008,-0.716915 2.67076,0.201631 3.11779,0.157689 3.11779,-0.306465 0,-0.298012 -0.23812,-0.541842 -0.52917,-0.541842 -0.29104,0 -0.52916,-0.15875 -0.52916,-0.352777 0,-0.194028 0.46591,-0.352778 1.03536,-0.352778 0.56946,0 1.44258,-0.15482 1.94028,-0.344047 0.9609,-0.365333 1.97048,-0.09299 3.16837,0.854696 0.61268,0.48471 0.63333,0.663931 0.22062,1.914462 -0.78992,2.393456 -0.91117,2.456229 -2.24582,1.162628 -1.17181,-1.135761 -1.23517,-1.153259 -2.39664,-0.661818 -0.69782,0.295264 -2.07157,1.575647 -3.30967,3.08473 -2.92442,3.56449 -4.30273,4.88516 -5.38076,5.15573 -0.50709,0.12727 -1.47072,0.60378 -2.14138,1.0589 -0.67065,0.45512 -1.51472,0.8275 -1.8757,0.8275 -0.87468,0 -0.84955,1.08037 0.0492,2.11666 0.38805,0.44743 0.70555,1.02176 0.70555,1.27629 0,0.25453 0.3175,0.6327 0.70556,0.84038 0.38805,0.20768 0.70555,0.59316 0.70555,0.85661 0,0.26346 0.23813,0.57039 0.52917,0.68207 0.29104,0.11169 0.52917,0.61978 0.52917,1.1291 0,0.6183 0.22636,0.98525 0.68115,1.10417 0.37463,0.098 0.76653,0.40061 0.87087,0.67253 0.10434,0.27192 0.43283,0.49441 0.72996,0.49441 0.36871,0 0.54024,0.3465 0.54024,1.09136 0,0.79467 0.1918,1.14152 0.70555,1.27586 0.84146,0.22005 0.93415,1.09498 0.14797,1.39667 -0.34204,0.13125 -0.48915,0.4757 -0.38053,0.89103 0.14438,0.55213 0.0845,0.60028 -0.32436,0.26093 -0.41401,-0.3436 -0.51064,-0.22412 -0.55433,0.6854 -0.0291,0.60584 -0.0688,1.29847 -0.0882,1.53918 -0.0194,0.24072 0.461,0.67728 1.06756,0.97014 1.05711,0.51041 2.33519,1.86371 3.17087,3.357488 0.21956,0.39248 0.76473,0.7049 1.23472,0.7076 0.71616,0.004 0.85789,0.20125 0.95106,1.32292 0.094,1.1312 0.006,1.31808 -0.61736,1.31808 -0.4109,0 -0.72685,0.23002 -0.72685,0.52917 0,0.63832 -0.15974,0.6557 -1.03013,0.11213 -0.95675,-0.5975 -4.34726,0.26368 -5.38435,1.36761 -0.66628,0.70922 -0.72409,0.95216 -0.36383,1.52902 0.23557,0.37721 0.42831,0.76627 0.42831,0.86458 0,0.30458 -4.00481,-0.0575 -4.98093,-0.45032 -0.56489,-0.22734 -0.99145,-0.72475 -1.09757,-1.27988 -0.23265,-1.21701 0.46016,-3.74864 1.24067,-4.53364 0.67744,-0.68132 0.53049,-1.31367 -0.30528,-1.31367 -0.68024,0 -3.32356,-1.678338 -3.32356,-2.110248 0,-0.18563 -0.87312,-0.89604 -1.94028,-1.57869 -1.06715,-0.68265 -1.94027,-1.37808 -1.94027,-1.54541 0,-0.16733 0.46913,-0.95186 1.04253,-1.7434 0.74456,-1.02784 1.05311,-1.87481 1.07956,-2.96335 0.0695,-2.86065 -0.0692,-3.18182 -1.61754,-3.74616 -1.62823,-0.59345 -1.92139,-0.49209 -4.87382,1.68523 -1.42393,1.0501 -1.63197,1.35546 -1.4421,2.11667 0.12204,0.48924 0.46517,1.15952 0.76252,1.48951 0.75753,0.8407 1.25797,5.57498 0.66373,6.27919 -0.79256,0.93923 -0.8706,1.65747 -0.50498,4.647798 0.48066,3.93122 0.4344,4.88044 -0.26267,5.39015 -0.78884,0.57682 -0.53154,3.68965 0.47519,5.74885 0.71756,1.46775 0.64368,1.91041 -0.18119,1.08554 -0.3165,-0.3165 -0.62723,-0.3165 -1.32188,0 -0.49946,0.22757 -1.43682,0.41377 -2.08304,0.41377 -0.6462,0 -1.37255,0.23812 -1.61409,0.52916 -0.49024,0.59071 -2.11667,0.72624 -2.11667,0.17639 z m 29.35111,-0.42333 c -0.59155,-0.59156 -0.5523,-0.75793 0.58263,-2.4694 0.71275,-1.07482 1.13328,-2.3396 1.44278,-4.33921 0.7215,-4.66161 1.60381,-6.02383 2.80418,-4.32943 0.81647,1.15251 1.52166,3.24069 0.92802,2.74801 -0.72316,-0.60017 -1.39594,-0.0929 -1.86341,1.40491 -0.59538,1.90768 -0.5735,2.01285 0.52885,2.5412 1.40454,0.67317 1.46907,1.64625 0.12696,1.91467 -1.23882,0.24776 -1.60915,0.6276 -1.9328,1.98244 -0.184,0.77021 -0.43394,0.97014 -1.21282,0.97014 -0.53958,0 -1.17155,-0.1905 -1.40439,-0.42333 z M 69.948296,113.51751 c -0.9543,-1.08935 -0.548633,-1.3922 0.898112,-0.67047 1.219708,0.60847 1.385704,1.01856 0.543161,1.34187 -0.704927,0.27051 -0.554944,0.34038 -1.441273,-0.6714 z m 193.530494,-0.14566 c -1.22801,-1.22801 -1.25897,-1.47555 -0.29378,-2.34903 0.72362,-0.65487 0.74671,-0.65463 1.23472,0.0127 0.47725,0.65269 0.71409,3.36748 0.29378,3.36748 -0.11194,0 -0.66757,-0.46404 -1.23472,-1.0312 z m 6.37713,-0.0339 c 0,-0.20722 -0.37324,-0.26582 -0.88115,-0.13835 -0.48464,0.12164 -1.11445,0.13164 -1.39959,0.0222 -0.45317,-0.1739 -0.44936,-0.36423 0.0303,-1.51214 0.30375,-0.72698 0.48908,-1.93826 0.41515,-2.71342 -0.13273,-1.39186 -0.12211,-1.40528 1.77669,-2.24502 1.05063,-0.46464 1.96138,-0.79365 2.02389,-0.73113 0.0625,0.0625 0.15165,0.75738 0.19807,1.54415 0.06,1.01735 -0.14518,1.75291 -0.71053,2.54687 -0.47497,0.66704 -0.71112,1.38047 -0.5867,1.77249 0.11453,0.36085 0.10828,0.91658 -0.0139,1.23496 -0.24384,0.63544 -0.8522,0.79204 -0.8522,0.21936 z m 9.87778,-0.52245 c 0,-0.29104 0.23813,-0.52916 0.52917,-0.52916 0.29104,0 0.52916,0.23812 0.52916,0.52916 0,0.29105 -0.23812,0.52917 -0.52916,0.52917 -0.29104,0 -0.52917,-0.23812 -0.52917,-0.52917 z m 97.10209,-10.8375 c -0.43657,-0.21055 -0.79375,-0.5173 -0.79375,-0.68168 0,-0.47137 0.45695,-0.33967 1.41111,0.40668 0.95747,0.74894 0.64964,0.88605 -0.61736,0.275 z m -102.26168,-0.82228 c -0.71594,-1.09267 -0.3246,-1.587448 1.04343,-1.319188 1.16141,0.227738 1.55873,0.945958 0.93743,1.694578 -0.63929,0.7703 -1.31395,0.64244 -1.98086,-0.37539 z m -82.37546,-0.41631 c -0.21254,-0.53718 -0.45718,-1.691058 -0.54364,-2.564178 -0.28185,-2.84609 -0.3948,-3.06889 -1.85138,-3.6517 -1.26093,-0.50453 -1.53856,-0.50502 -3.00509,-0.005 -1.1797,0.40196 -1.97199,0.46544 -2.93547,0.23518 -1.20869,-0.28886 -1.31965,-0.4178 -1.31965,-1.53357 0,-1.00342 -0.14337,-1.23853 -0.81317,-1.33348 -0.44724,-0.0634 -1.02448,0.0601 -1.28275,0.27445 -0.36121,0.29978 -0.81958,0.0634 -1.98603,-1.02434 -1.43021,-1.33365 -1.54957,-1.37934 -2.09903,-0.80361 -0.32043,0.33574 -0.52326,0.84857 -0.45074,1.13961 0.20947,0.8407 -3.41838,2.63368 -4.69797,2.32186 -2.72641,-0.66437 -2.82589,-0.65225 -4.14389,0.50498 -1.74138,1.52895 -2.34116,1.23719 -2.34367,-1.14008 -0.002,-1.95693 -0.56254,-4.51686 -0.98475,-4.49777 -0.1364,0.006 -0.55616,0.2443 -0.93279,0.52917 -0.41773,0.31596 -1.47582,0.51795 -2.71321,0.51795 -1.11563,0 -2.13258,0.16854 -2.25989,0.37454 -0.12732,0.20599 -0.6387,0.52936 -1.13641,0.71859 -0.75935,0.2887 -1.10852,0.18141 -2.17059,-0.66703 -1.69636,-1.35513 -2.75088,-1.58475 -3.9702,-0.86448 -1.34187,0.79267 -1.62454,0.39669 -1.82763,-2.56023 -0.0933,-1.3582 -0.34202,-2.91634 -0.55275,-3.46255 -0.21073,-0.5462 -0.38314,-1.62602 -0.38314,-2.39959 0,-1.25194 -0.11871,-1.44788 -1.08024,-1.78307 l -1.08023,-0.37657 0.77814,-0.82829 c 1.14718,-1.22112 1.35107,-3.97877 0.36045,-4.87526 -0.4081,-0.36933 -0.74398,-0.84534 -0.74638,-1.057806 -0.002,-0.212461 -0.56783,-0.751371 -1.25651,-1.197575 -1.16081,-0.752098 -1.22483,-0.760226 -0.87758,-0.111386 0.59393,1.109775 0.45782,1.407576 -0.90323,1.976257 -1.75817,0.73461 -1.83219,0.70417 -1.79136,-0.736511 0.0279,-0.982779 0.21964,-1.340235 0.84703,-1.578769 1.00558,-0.382319 1.03551,-0.8864 0.0829,-1.396213 -0.52468,-0.280801 -0.85718,-0.282547 -1.1901,-0.0062 -0.35082,0.291147 -0.60688,0.162316 -1.06398,-0.535295 -0.71771,-1.095378 -0.5324,-1.416847 0.49866,-0.865039 0.69998,0.374618 0.72057,0.352231 0.29813,-0.324196 -0.24957,-0.39963 -0.70847,-0.726602 -1.01979,-0.726602 -0.97237,0 -1.7337,-1.202373 -1.7337,-2.738032 0,-1.150853 0.14868,-1.494945 0.72498,-1.677853 0.39873,-0.126556 0.67654,-0.336434 0.61736,-0.466397 -0.0592,-0.129963 -0.4136,-1.029307 -0.78757,-1.998536 -0.82528,-2.13887 -0.70554,-1.971477 -1.49258,-2.086585 -0.51091,-0.07472 -0.70563,-0.54006 -0.91156,-2.178392 -0.14402,-1.145854 -0.33302,-2.270202 -0.42,-2.498552 -0.087,-0.228346 0.0803,-0.613096 0.37181,-0.854996 0.31832,-0.264181 0.49094,-0.892683 0.43225,-1.57383 -0.0537,-0.623704 0.081,-1.350203 0.29946,-1.614445 0.21844,-0.264241 0.51197,-1.115437 0.6523,-1.891548 0.17771,-0.982825 0.61558,-1.713354 1.44268,-2.406932 0.73416,-0.615636 1.18754,-1.315092 1.18754,-1.832081 0,-0.955135 1.4899,-2.253802 1.71989,-1.499133 0.0748,0.245562 0.38906,0.736431 0.69828,1.090814 0.30923,0.354386 0.72507,1.142859 0.92411,1.752166 0.22061,0.675347 0.94023,1.495566 1.84336,2.101035 0.81481,0.546266 2.52703,2.018372 3.80493,3.27135 2.59746,2.54682 3.5444,2.955177 5.00633,2.15894 2.63556,-1.435442 3.31563,-1.53005 7.81156,-1.086696 1.619,0.159653 2.39161,0.08937 2.82222,-0.256741 0.32611,-0.262118 1.18824,-0.77802 1.91584,-1.14645 0.9446,-0.478307 1.32292,-0.899337 1.32292,-1.472248 0,-1.510273 1.66987,-2.261524 5.02687,-2.261524 2.52964,0 3.07374,0.106158 3.61619,0.705555 0.35118,0.388056 0.89609,0.705556 1.2109,0.705556 0.31481,0 0.88552,0.215565 1.26824,0.47903 0.38272,0.263468 1.48961,0.568582 2.45975,0.678035 1.6101,0.181653 1.85987,0.106952 2.86478,-0.856784 1.03783,-0.995306 1.28033,-1.05991 4.23333,-1.12782 l 3.13244,-0.07204 0.70556,-1.443306 c 0.38805,-0.79382 0.88687,-1.662977 1.10849,-1.931462 0.22161,-0.268485 0.41027,-1.175794 0.41925,-2.016241 0.0169,-1.585401 0.81489,-3.23312 1.56719,-3.236168 0.23807,-0.0011 0.89502,-0.371563 1.45989,-0.823556 1.02128,-0.817185 1.02654,-1.644135 0.0105,-1.644135 -0.65619,0 -0.64786,-0.07405 0.24065,-2.139463 0.63512,-1.476375 0.89499,-1.741092 1.70921,-1.741092 1.15736,0 2.12711,-0.976288 2.13008,-2.144445 0.001,-0.46979 0.22737,-1.285847 0.50261,-1.813457 0.39035,-0.748231 0.41428,-1.187577 0.1088,-1.996885 -0.31271,-0.82846 -0.26132,-1.468042 0.25498,-3.173239 1.13676,-3.754466 1.47568,-3.88106 10.59671,-3.958125 5.0133,-0.04235 5.37085,7.06e-4 6.79694,0.819704 1.43472,0.823888 1.46871,0.880731 0.72504,1.212568 -0.74408,0.332013 -0.71165,0.386711 0.69958,1.179865 0.81391,0.457444 1.47983,1.027377 1.47983,1.266522 0,0.239144 0.15407,0.487722 0.34238,0.5524 0.18832,0.06468 0.38675,0.513952 0.44097,0.998397 0.0776,0.692855 -0.0795,0.906236 -0.73584,1.000005 -0.45894,0.06556 -0.96682,-0.0133 -1.12861,-0.17525 -0.485,-0.485447 -3.8578,-0.11829 -3.8578,0.419954 0,0.690531 1.00651,1.578652 1.78909,1.578652 0.82816,0 0.85374,0.301026 0.11521,1.355429 -0.31084,0.443777 -0.50927,0.836284 -0.44098,0.872247 0.0683,0.03596 0.75918,0.384016 1.53529,0.773458 0.97192,0.487697 1.41466,0.94174 1.42251,1.458813 0.006,0.412906 0.23944,1.025522 0.51818,1.361377 0.53359,0.642934 1.11115,2.050919 2.00356,4.884243 0.39268,1.246738 0.43308,1.815158 0.14921,2.099028 -0.21411,0.214111 -0.38929,0.981848 -0.38929,1.706076 0,1.001176 0.16691,1.369758 0.69639,1.537807 0.38301,0.121564 1.02018,0.67575 1.41593,1.231523 0.39574,0.555776 1.199,1.115808 1.78501,1.244515 0.586,0.128711 1.31647,0.617097 1.62325,1.085307 0.30678,0.468206 0.75536,0.851288 0.99684,0.851288 0.24147,0 0.97728,0.565975 1.63512,1.25772 0.65784,0.691744 1.55326,1.402192 1.98982,1.578768 1.84324,0.745536 0.32886,2.577268 -2.20486,2.666912 -0.77611,0.02745 -2.36193,-0.162482 -3.52404,-0.422095 -1.94943,-0.435501 -2.53279,-0.828047 -3.35282,-2.256144 -0.16619,-0.289426 -0.41893,-0.409463 -0.56165,-0.266746 -0.14271,0.142716 -0.0146,0.538268 0.28459,0.879005 0.60119,0.684559 1.15615,2.207024 0.8045,2.207024 -0.12284,0 -0.52282,-0.160267 -0.88883,-0.356154 -0.79509,-0.425517 -1.66709,0.366205 -2.64443,2.40096 -0.34517,0.718622 -0.7641,1.544708 -0.93095,1.835749 -0.80194,1.398852 -1.50362,5.012112 -1.20916,6.226503 0.13409,0.552994 0.23539,1.379467 0.22512,1.836607 -0.0134,0.597186 0.13005,0.774093 0.50963,0.628431 0.37916,-0.145492 0.52832,0.03727 0.52832,0.647323 0,0.467529 -0.16825,0.954035 -0.37389,1.081126 -0.23791,0.147038 -0.15393,0.391919 0.23093,0.67333 0.54651,0.399619 0.49244,0.498316 -0.56091,1.023796 -0.94161,0.469738 -1.26834,0.496891 -1.69941,0.141242 -0.43312,-0.357336 -0.56604,-0.34059 -0.70542,0.08886 -0.15741,0.48502 -0.82708,1.172055 -4.77173,4.895498 -2.30218,2.17307 -3.40846,3.89896 -3.40846,5.31743 0,0.7082 -0.16396,1.45158 -0.36434,1.65197 -0.56492,0.56492 -0.0123,1.59579 0.72921,1.36043 0.87637,-0.27815 1.10084,0.2437 0.83091,1.93172 -0.19167,1.19864 -0.34101,1.40644 -0.88637,1.23335 -0.80736,-0.25624 -1.63984,0.15675 -1.05034,0.52107 0.4354,0.2691 0.16888,3.13788 -0.36699,3.95023 -0.25451,0.38583 -0.44902,0.32485 -0.98013,-0.30728 -0.57443,-0.6837 -0.69189,-0.71233 -0.88268,-0.21514 -0.13692,0.35679 0.047,0.76059 0.48677,1.0686 0.60539,0.42403 0.6445,0.60494 0.27249,1.26038 -0.2389,0.42091 -0.77936,1.05093 -1.20103,1.40004 -0.42166,0.34911 -0.86991,1.10481 -0.99609,1.67933 -0.18383,0.83696 -0.65763,1.26217 -2.38384,2.13937 -1.18493,0.60214 -3.19731,1.48707 -4.47196,1.96652 -1.27466,0.47945 -3.15381,1.343358 -4.17588,1.919808 l -1.85833,1.04809 z m 14.01524,-3.088778 c -0.24279,-2.6793 0.0156,-3.68268 1.20036,-4.66061 0.62838,-0.51869 1.18561,-0.5978 0.89465,-0.12701 -0.11293,0.18272 -0.0632,1.23888 0.11063,2.34702 0.38464,2.45282 0.15828,3.391 -1.04588,4.33499 l -0.92255,0.723218 z m 109.19068,0.90229 c -0.30329,-0.18745 -0.33937,-0.36925 -0.10235,-0.51574 0.20133,-0.12443 0.4723,-0.0543 0.60215,0.15576 0.32402,0.52427 0.0663,0.70986 -0.4998,0.35998 z m -5.86115,-0.44956 c -0.58208,-0.20291 -1.46389,-0.74601 -1.95958,-1.20687 -0.49568,-0.46086 -1.08233,-0.83793 -1.30366,-0.83793 -0.36918,0 -0.62744,-0.37458 -1.90389,-2.76142 -0.58572,-1.09525 -0.0165,-1.98154 1.32503,-2.06306 0.56093,-0.0341 2.10049,-0.20201 3.42123,-0.37317 2.08667,-0.27041 2.60434,-0.21706 3.95033,0.40707 1.14717,0.53194 1.53088,0.90327 1.4792,1.4315 -0.042,0.42982 0.14051,0.71325 0.4594,0.71325 0.60749,0 0.99775,0.70264 1.03354,1.86081 0.017,0.54962 -0.2607,0.91103 -0.88126,1.14696 -0.49833,0.18947 -1.42612,0.74116 -2.06177,1.22599 -1.24342,0.94841 -1.90493,1.03334 -3.55857,0.45687 z m 40.90459,0.0948 c -0.42601,-0.41931 -6.67853,-3.55068 -7.08977,-3.55068 -0.16918,0 -0.50588,-0.3175 -0.74822,-0.70556 -0.56475,-0.9043 -3.96243,-1.05555 -3.96243,-0.17639 0,0.31166 -0.32626,0.53184 -0.79375,0.53566 -1.35706,0.0111 -4.8445,-1.21617 -4.84768,-1.70596 -0.004,-0.63836 -1.41976,-0.19992 -2.17863,0.67476 -0.32347,0.37283 -1.04589,0.76943 -1.60539,0.88133 -0.85134,0.17027 -1.08542,0.0539 -1.43516,-0.71372 -0.22983,-0.50445 -0.85679,-1.11005 -1.39322,-1.34577 -0.53643,-0.23573 -1.07665,-0.57123 -1.20048,-0.74556 -0.30029,-0.42277 -1.00958,0.0406 -1.00958,0.6596 0,0.71253 -0.76786,2.28883 -1.11496,2.28883 -0.16288,0 -0.29615,-0.32793 -0.29615,-0.72875 0,-0.40081 -0.15488,-1.01815 -0.34419,-1.37187 -0.28433,-0.53128 -0.15874,-0.71993 0.7222,-1.08483 0.5865,-0.24294 1.30109,-0.89559 1.58796,-1.45035 0.4855,-0.93885 0.67355,-1.01101 2.7174,-1.04282 1.20769,-0.0188 2.78032,-0.007 3.49474,0.0253 0.71441,0.0327 1.62056,-0.11271 2.01366,-0.32309 0.58676,-0.31402 0.78275,-0.25538 1.09472,0.32754 0.4912,0.91781 1.57083,0.90549 2.5049,-0.0286 0.88966,-0.88965 2.19056,-0.73622 5.21572,0.61516 1.49075,0.66593 2.37283,0.84384 3.55248,0.71651 1.28175,-0.13835 1.77645,-0.0114 2.69973,0.69282 0.62173,0.47422 1.23431,1.27619 1.36131,1.78217 0.12699,0.50598 0.71623,1.37333 1.30941,1.92745 0.80423,0.75126 1.02461,1.20863 0.86656,1.79836 -0.11658,0.43498 -0.21413,1.14806 -0.21678,1.58462 -0.005,0.83761 -0.34669,1.01282 -0.9044,0.46388 z M 209.0541,95.790512 c -0.26804,-0.43368 0.13356,-1.84858 0.52469,-1.84858 0.17509,0 0.21362,0.43657 0.0856,0.97014 -0.28159,1.17378 -0.35895,1.28514 -0.6103,0.87844 z m 116.7171,-0.0847 c -0.28769,-0.46549 0.13413,-1.12609 0.55355,-0.86687 0.42848,0.26481 0.4257,1.21965 -0.004,1.21965 -0.18257,0 -0.43007,-0.15875 -0.54999,-0.35278 z m 1.6757,-0.0882 c 0.0808,-0.24254 0.35865,-0.44097 0.61736,-0.44097 0.2587,0 0.53651,0.19843 0.61736,0.44097 0.0874,0.26232 -0.16267,0.44097 -0.61736,0.44097 -0.45469,0 -0.7048,-0.17865 -0.61736,-0.44097 z m 2.25406,0.1962 c -0.39729,-0.3973 -0.24196,-0.81356 0.30358,-0.81356 0.29104,0 0.52916,0.14938 0.52916,0.33195 0,0.44485 -0.55089,0.76345 -0.83274,0.48161 z m -11.1617,-2.93023 c 0,-0.19403 0.24749,-0.35278 0.54998,-0.35278 0.3025,0 0.45188,0.15875 0.33196,0.35278 -0.11991,0.19403 -0.36741,0.35278 -0.54999,0.35278 -0.18257,0 -0.33195,-0.15875 -0.33195,-0.35278 z M 51.545889,91.158622 c -1.201452,-1.85415 -1.45047,-3.21391 -0.588578,-3.21391 0.291042,0 0.529167,0.14657 0.529167,0.32571 0,0.17914 0.422942,0.82835 0.93987,1.44269 0.703997,0.83665 0.827659,1.18632 0.492746,1.39331 -0.343641,0.21238 -0.354174,0.45002 -0.04552,1.02676 0.784504,1.46586 -0.22787,0.72275 -1.32769,-0.97456 z m 269.002031,1.14661 c -0.28184,-0.28185 0.0368,-0.83274 0.4816,-0.83274 0.18258,0 0.33196,0.23812 0.33196,0.52917 0,0.54553 -0.41626,0.70086 -0.81356,0.30357 z m -194.00318,-0.96886 c -0.57236,-0.69687 -0.63719,-0.7053 -0.98767,-0.12846 -0.55183,0.90823 -1.97377,0.79597 -2.23436,-0.17639 -0.31785,-1.18607 -0.26279,-2.75061 0.14898,-4.23334 0.2887,-1.03956 0.54147,-1.32291 1.18011,-1.32291 1.35916,0 3.15507,0.76682 4.2343,1.80797 l 1.02325,0.98714 -0.59141,1.54859 c -0.74903,1.9613 -1.89404,2.58781 -2.7732,1.5174 z m -15.66387,-0.35227 c -3.14896,-1.75023 -4.74638,-3.74143 -4.18181,-5.21267 0.10913,-0.28439 -0.12468,-0.80947 -0.51958,-1.16685 -0.3949,-0.35737 -0.718,-0.99744 -0.718,-1.42237 0,-1.3811 -1.11426,-1.98197 -3.85603,-2.07938 -3.236857,-0.115 -3.652461,-0.52573 -1.783487,-1.76256 0.844257,-0.5587 1.419687,-1.20514 1.384737,-1.55561 -0.11616,-1.16487 0.0318,-1.41622 1.04107,-1.76803 1.12805,-0.39325 1.8026,-0.01 1.8026,1.02478 0,0.3285 0.24487,0.69122 0.54415,0.80607 0.44442,0.17054 0.5061,-3.5e-4 0.3365,-0.93239 -0.17751,-0.97559 -0.0798,-1.19921 0.67331,-1.54085 0.71836,-0.32587 0.97344,-0.29331 1.38206,0.17639 0.80077,0.92051 1.29731,2.05167 1.29731,2.95539 0,0.92392 1.51401,5.00836 2.13291,5.75409 0.21509,0.25916 1.25917,0.66548 2.32018,0.90292 1.06102,0.23744 1.99751,0.54237 2.08109,0.67761 0.0836,0.13524 -0.16179,0.52983 -0.54527,0.87688 -0.38856,0.35164 -0.69724,1.08307 -0.69724,1.65217 0,1.24819 -0.91798,3.11549 -1.50836,3.06821 -0.23756,-0.019 -0.77132,-0.22323 -1.18614,-0.4538 z m 211.89172,-1.25468 c 0,-0.18258 0.15875,-0.43007 0.35278,-0.54999 0.19403,-0.11991 0.35278,0.0295 0.35278,0.33196 0,0.30249 -0.15875,0.54999 -0.35278,0.54999 -0.19403,0 -0.35278,-0.14938 -0.35278,-0.33196 z M 48.664256,87.568742 c 0,-0.40081 -0.171613,-1.04941 -0.38136,-1.44132 -0.569341,-1.06382 -0.160415,-1.16578 1.059183,-0.2641 1.245719,0.921 1.333846,1.28635 0.468704,1.94309 -0.86863,0.65938 -1.146527,0.60177 -1.146527,-0.23767 z m 254.000004,-6.48237 c 0,-1.0023 0.65707,-1.55202 1.0654,-0.89134 0.28426,0.45995 -0.30392,1.75246 -0.79749,1.75246 -0.14735,0 -0.26791,-0.38751 -0.26791,-0.86112 z m 41.43375,-0.49052 c -0.18433,-0.16132 -1.00983,-0.48519 -1.83445,-0.71972 -0.82461,-0.23452 -1.4993,-0.55048 -1.4993,-0.70214 0,-0.40786 3.14934,-1.70777 4.6732,-1.92888 1.14989,-0.16685 1.3443,-0.0915 1.49476,0.5796 0.31502,1.40494 0.0195,2.17648 -1.00499,2.62347 -1.19262,0.52038 -1.38556,0.53595 -1.82922,0.14767 z m -56.24655,-1.11057 c -0.20555,-0.38407 -0.27516,-1.09102 -0.15469,-1.57099 0.17596,-0.7011 0.5071,-0.91538 1.68423,-1.08983 0.80586,-0.11942 2.17958,-0.0274 3.0527,0.20438 0.87313,0.23182 2.24898,0.42177 3.05745,0.42211 1.15608,3.5e-4 1.50804,0.14624 1.64831,0.68266 0.22271,0.85163 -0.0545,0.95028 -3.14943,1.1208 -1.37534,0.0758 -2.83335,0.31585 -3.24001,0.53348 -1.15416,0.61769 -2.48011,0.47926 -2.89856,-0.30261 z m 10.31488,-0.40716 c -0.24253,-0.24571 -0.44097,-0.57374 -0.44097,-0.72896 0,-0.3976 8.38083,-0.35373 8.62735,0.0452 0.2879,0.46583 -0.58401,0.64508 -4.39402,0.90336 -2.48893,0.16873 -3.46487,0.11223 -3.79236,-0.21955 z m 105.30392,-0.57551 c -1.24731,-0.60979 -4.63783,-1.49401 -5.72879,-1.49401 -0.46415,0 -0.9518,-0.17455 -1.08363,-0.38789 -0.16944,-0.27413 0.36767,-0.32392 1.83127,-0.16978 1.13905,0.11997 3.02348,0.2832 4.18765,0.36274 4.90485,0.33512 7.71204,0.74483 7.84401,1.14483 0.26727,0.8102 -5.58281,1.26166 -7.05051,0.54411 z M 38.503733,77.432632 c -0.747056,-0.38512 -1.646015,-1.41001 -2.507012,-2.85822 -1.211484,-2.03772 -1.304278,-2.36439 -0.95198,-3.351383 0.455897,-1.277235 0.829189,-1.609947 1.814617,-1.617355 0.554045,-0.0042 0.997229,0.604417 1.93432,2.656188 0.668581,1.46388 1.57547,2.99968 2.015313,3.41288 0.902981,0.84832 1.051306,1.40827 0.296281,1.11854 -0.367598,-0.14107 -0.451679,0.005 -0.311634,0.54023 0.240739,0.92059 -0.623824,0.95801 -2.289905,0.0991 z m 279.542887,-0.38366 c -0.90802,-1.00336 -0.49514,-2.20338 0.99557,-2.8936 1.13121,-0.52376 1.30896,-0.51508 2.73471,0.13358 4.109,1.86942 4.51313,2.97323 1.08389,2.96047 -1.30969,-0.005 -2.78256,0.10948 -3.27305,0.25409 -0.67269,0.19835 -1.05133,0.0867 -1.54112,-0.45454 z m -41.40251,-1.89245 c -0.21263,-0.43656 -0.44563,-1.0154 -0.51777,-1.28629 -0.0937,-0.35166 -0.50356,-0.16559 -1.43304,0.65051 l -1.30186,1.14304 -0.37765,-0.99328 c -0.26281,-0.69127 -0.26629,-1.23768 -0.0114,-1.79704 0.30253,-0.66397 0.6436,-0.803745 1.96128,-0.803745 1.35988,0 1.59506,0.104035 1.59506,0.705555 0,0.84387 0.89356,0.93735 1.3397,0.14014 0.43374,-0.77505 1.63474,-0.47795 1.76588,0.43685 0.0588,0.4104 -0.13409,0.9644 -0.42873,1.23112 -1.81942,1.64704 -2.04418,1.69675 -2.59144,0.57314 z m 74.96558,-1.71208 c -0.57224,-0.32703 -2.21856,-3.092827 -1.9624,-3.296817 0.43065,-0.342942 2.40126,-0.720584 3.22734,-0.618479 0.71882,0.08885 0.94078,0.272087 0.79375,0.655253 -0.11226,0.292551 -0.20765,0.876116 -0.21195,1.296811 -0.004,0.420691 -0.28216,1.114222 -0.61736,1.541182 -0.47311,0.60254 -0.74827,0.69701 -1.22938,0.42205 z m -32.89404,-1.02195 c -0.27759,-0.44915 0.5397,-0.44915 1.23472,0 0.4302,0.27802 0.38461,0.34298 -0.24376,0.34738 -0.42512,0.003 -0.87105,-0.15335 -0.99096,-0.34738 z m 22.40139,-0.352775 c 0,-0.194028 0.3175,-0.352778 0.70555,-0.352778 0.38806,0 0.70556,0.15875 0.70556,0.352778 0,0.194025 -0.3175,0.352775 -0.70556,0.352775 -0.38805,0 -0.70555,-0.15875 -0.70555,-0.352775 z m 60.67778,-0.102979 c -0.48507,-0.244944 -1.15884,-1.031727 -1.49723,-1.748409 -0.38255,-0.810091 -0.79491,-1.234137 -1.09001,-1.120888 -0.26109,0.100189 -0.67691,-0.06144 -0.924,-0.359174 -0.24708,-0.297734 -0.57266,-0.465074 -0.72347,-0.371863 -0.15082,0.09322 -0.54709,-0.246962 -0.88057,-0.755942 l -0.60636,-0.925418 1.3607,0.25527 c 0.74838,0.140402 1.46325,0.421185 1.58856,0.623969 0.12534,0.202784 0.6507,0.287874 1.16748,0.189085 0.78056,-0.149218 1.15775,0.08141 2.22889,1.362813 0.77869,0.931559 1.58573,1.542425 2.03775,1.542425 1.08546,0 1.30231,0.381332 0.63574,1.1179 -0.67765,0.748806 -2.03613,0.827176 -3.29748,0.190232 z m -10.73454,-0.804164 c -0.68471,-0.684703 -0.70672,-1.173194 -0.0641,-1.419814 0.4156,-0.159481 2.33193,1.331083 2.33193,1.813824 0,0.407959 -1.77412,0.09973 -2.26787,-0.39401 z m -43.24047,-2.0156 c 0,-0.271183 0.77952,-0.596099 1.94028,-0.808739 2.21981,-0.40665 2.53893,-0.0559 0.66248,0.728137 -1.56359,0.653309 -2.60276,0.685489 -2.60276,0.0806 z m -21.73225,-0.396345 c -0.10487,-0.27328 -0.66448,-0.693127 -1.24358,-0.932999 -0.69045,-0.285997 -1.34476,-1.012066 -1.90072,-2.109187 -0.46629,-0.920182 -1.26289,-1.975429 -1.77022,-2.344995 -0.8601,-0.626544 -0.9266,-0.87581 -0.98435,-3.689858 -0.0405,-1.974593 -0.23111,-3.221729 -0.5513,-3.607442 -0.34471,-0.415255 -0.42784,-1.109081 -0.28121,-2.34714 0.12131,-1.024266 0.0679,-1.757624 -0.12799,-1.757624 -0.18488,0 -0.33616,-0.309611 -0.33616,-0.688026 0,-0.378414 -0.2593,-0.833137 -0.57622,-1.0105 -0.6057,-0.338966 -0.56227,-1.324507 0.15057,-3.416751 0.19832,-0.582083 0.60666,-1.814855 0.90742,-2.739489 0.56517,-1.73754 3.23857,-5.197531 4.01615,-5.197838 0.7124,-2.79e-4 0.50823,0.882565 -0.44097,1.906767 -1.09032,1.176468 -1.11197,1.705392 -0.0882,2.154545 0.62116,0.272521 0.81804,0.68871 0.90548,1.914158 0.15561,2.180805 -0.7773,4.088154 -2.46292,5.035528 -1.5326,0.861367 -1.5976,1.016611 -0.73562,1.756918 1.3741,1.180148 1.8554,1.072438 2.58575,-0.578654 0.38026,-0.859638 1.01238,-1.664861 1.40471,-1.789384 0.50696,-0.160898 0.65152,-0.421132 0.4997,-0.899495 -0.34887,-1.099199 2.75524,-3.503334 4.52335,-3.503334 0.76961,0 1.28873,2.238936 0.88652,3.823511 -0.30716,1.210099 -0.61198,1.506968 -2.61036,2.542272 -1.24442,0.644702 -2.26259,1.277162 -2.26259,1.40547 0,0.478617 1.29752,1.382282 2.62068,1.825191 0.75209,0.251746 1.4773,0.695847 1.6116,0.986889 0.13429,0.291042 0.4276,0.884199 0.65178,1.31813 0.60605,1.173063 0.54005,1.201494 -1.0917,0.470284 -1.8636,-0.835106 -5.32088,-1.601442 -6.01799,-1.333934 -0.79676,0.305742 -1.14801,4.129737 -0.49732,5.414151 0.28157,0.555794 0.71699,1.645536 0.9676,2.421647 0.48062,1.488429 1.34964,2.892255 2.78438,4.497916 0.72918,0.816053 0.77058,0.970139 0.26063,0.970139 -0.33344,0 -0.69204,-0.223591 -0.79691,-0.496866 z m -5.60803,-0.20869 c -0.11991,-0.194027 -0.68491,-0.352777 -1.25554,-0.352777 -0.77327,0 -1.03751,-0.165767 -1.03751,-0.650879 0,-0.357985 -0.32449,-0.944538 -0.72109,-1.303454 -0.90146,-0.815809 -0.784,-2.102612 0.19192,-2.102612 0.38806,0 0.88278,-0.115319 1.09938,-0.256264 0.21661,-0.140946 0.68581,0.06637 1.04268,0.460706 0.54648,0.60386 0.57855,0.829529 0.20328,1.430436 -0.56795,0.909433 -0.0365,1.628317 1.20374,1.628317 1.08757,0 1.365,0.242672 1.09169,0.954923 -0.23308,0.607385 -1.48036,0.738798 -1.81855,0.191604 z m -4.91921,-0.67372 c -0.26385,-0.426929 0.15595,-1.485057 0.50388,-1.270029 0.52664,0.325484 0.6617,1.590972 0.1698,1.590972 -0.26143,0 -0.56458,-0.144424 -0.67368,-0.320943 z M 91.003436,65.911484 c -0.516403,-1.358251 -0.466023,-1.499359 0.611515,-1.712722 1.337519,-0.264845 2.064639,0.464622 1.505162,1.510012 -0.228688,0.427309 -0.507393,0.685334 -0.61934,0.573384 -0.111947,-0.111947 -0.413957,-0.02893 -0.671128,0.18452 -0.361629,0.300123 -0.548848,0.174315 -0.826209,-0.555194 z M 314.89389,65.484531 c -0.46459,-0.464587 -0.23393,-2.256885 0.31769,-2.468562 0.81056,-0.311041 1.15933,0.256635 0.95674,1.557221 -0.16607,1.066189 -0.72203,1.463749 -1.27443,0.911341 z m 27.28148,-0.823147 c 0,-0.194028 0.16812,-0.352778 0.3736,-0.352778 0.20548,0 0.27548,0.15875 0.15557,0.352778 -0.11992,0.194028 -0.28804,0.352778 -0.3736,0.352778 -0.0856,0 -0.15557,-0.15875 -0.15557,-0.352778 z m 7.9375,-0.352778 c -0.25688,-0.809353 -0.56286,-0.883528 -1.16417,-0.282222 -0.32926,0.329258 -0.42333,0.290061 -0.42333,-0.176389 0,-0.428498 -0.29622,-0.599722 -1.03751,-0.599722 -0.57064,0 -1.12003,-0.133505 -1.22088,-0.296676 -0.31396,-0.508003 1.913,-1.888119 3.35981,-2.082179 1.92354,-0.258 5.54756,0.560843 5.96923,1.34874 0.70842,1.323697 0.42743,1.661647 -1.33801,1.609129 -1.17599,-0.035 -1.85979,0.13425 -2.29306,0.567514 -0.81784,0.817841 -1.57598,0.781738 -1.85208,-0.08819 z m 1.2235,-1.322916 c -0.0203,-0.478184 -0.94011,-1.499306 -1.35059,-1.499306 -0.5125,0 -0.50594,0.196039 0.0356,1.063121 0.42181,0.675428 1.33807,0.979342 1.31503,0.436185 z M 32.436477,64.153038 c 0,-0.27959 0.165208,-0.61045 0.367128,-0.735245 0.20192,-0.124795 0.270597,-0.531036 0.152616,-0.902765 -0.318408,-1.003212 0.485614,-0.825335 0.958256,0.212001 0.34249,0.751685 0.300747,0.966403 -0.272147,1.399893 -0.866069,0.655324 -1.205853,0.662679 -1.205853,0.02612 z M 96.12058,63.039682 c -0.485578,-0.357695 -1.143551,-0.44722 -2.163152,-0.294322 -1.750424,0.262491 -2.164885,-0.176276 -1.346426,-1.425399 0.741983,-1.132413 1.325238,-1.12728 2.227379,0.01962 0.394349,0.501332 0.864132,0.820582 1.043964,0.709439 0.391669,-0.242065 1.230359,0.681581 1.057625,1.164749 -0.06731,0.188292 -0.432904,0.110624 -0.81939,-0.174075 z m 241.53017,-1.311451 c -1.09902,-1.16985 -0.94573,-1.453409 0.29129,-0.538843 1.02582,0.758422 1.36364,1.355329 0.76704,1.355329 -0.1602,0 -0.63645,-0.367418 -1.05833,-0.816486 z m -19.6114,-1.252834 c -0.15196,-0.245886 -0.18103,-0.542336 -0.0646,-0.658781 0.31573,-0.315722 0.65997,0.148626 0.48944,0.660206 -0.11949,0.358483 -0.20259,0.358204 -0.42485,-0.0014 z M 25.733699,53.884817 c 0,-0.945504 -1.50501,-2.628988 -2.350276,-2.628988 -0.265849,0 -0.751354,-0.595313 -1.078901,-1.322917 -0.327546,-0.727604 -1.070494,-1.838854 -1.650995,-2.469444 L 19.59807,46.31694 h 1.23337 c 0.678354,0 1.422066,-0.188697 1.652695,-0.419326 0.323915,-0.323913 0.99117,0.175663 2.932566,2.195622 l 2.513241,2.614941 -0.200551,1.693344 c -0.242843,2.050429 -0.425368,2.382086 -1.310956,2.382086 -0.498622,0 -0.684736,-0.244295 -0.684736,-0.89879 z m 51.12146,-1.079225 c -0.351903,-0.424017 -0.839481,-0.516329 -1.934464,-0.366243 -1.531881,0.209966 -3.142873,-0.466154 -2.320992,-0.974101 0.223421,-0.138084 0.40622,-0.638566 0.40622,-1.112184 0,-1.041069 0.382711,-1.106315 0.970308,-0.165425 0.26622,0.426286 0.65048,0.612807 0.992269,0.481651 0.313993,-0.120491 1.047799,0.144582 1.678862,0.606457 0.919544,0.673012 1.025942,0.697406 0.591894,0.13571 -0.765108,-0.990127 -1.131164,-1.2025 -2.083149,-1.20856 -0.809808,-0.0052 -0.820938,-0.03577 -0.244538,-0.672688 0.743133,-0.821153 1.502695,-0.647777 3.165016,0.722447 1.424612,1.174288 1.614407,1.708728 0.60681,1.708728 -0.498846,0 -0.624879,0.182214 -0.488023,0.705556 0.227955,0.871693 -0.655951,0.963136 -1.340213,0.138652 z M 81.47259,52.66694 c 0,-0.799645 0.365834,-0.904166 0.987778,-0.282222 0.621943,0.621943 0.517422,0.987778 -0.282223,0.987778 -0.470369,0 -0.705555,-0.235187 -0.705555,-0.705556 z m 7.614162,-0.57966 c -0.12234,-0.318812 -0.143161,-0.658932 -0.04627,-0.755826 0.280836,-0.280839 1.264324,0.676638 1.050456,1.022681 -0.302715,0.489801 -0.760519,0.368145 -1.004189,-0.266855 z m 3.574171,-0.394878 c -0.33275,-0.367686 -0.604999,-0.832443 -0.604999,-1.032792 0,-0.20035 -0.396875,-0.288407 -0.881945,-0.195679 -1.138657,0.217667 -1.203967,-0.697406 -0.08819,-1.23571 1.398037,-0.674486 2.38125,-0.770449 2.38125,-0.23242 0,0.272877 0.15875,0.496139 0.352778,0.496139 0.503943,0 0.436209,1.514937 -0.100556,2.249008 -0.430421,0.588638 -0.483913,0.586182 -1.058334,-0.04855 z m -21.769497,-1.31281 c -0.19522,-0.513471 -0.354948,-1.163528 -0.354948,-1.444572 0,-0.281043 -0.192429,-0.819114 -0.427619,-1.195712 -0.52772,-0.845015 -0.217749,-1.209999 0.76321,-0.898655 1.208835,0.383667 1.865863,1.696381 1.519012,3.034922 -0.382725,1.476982 -1.045094,1.699599 -1.499655,0.504017 z m 16.573363,-0.01175 c -0.550224,-0.662979 -0.05058,-1.329492 1.05785,-1.411153 0.889917,-0.06556 0.91683,0.592465 0.05609,1.371427 -0.593111,0.536758 -0.69832,0.540512 -1.113938,0.03973 z M 81.311268,50.22188 c -0.111633,-0.180622 -0.05826,-0.417833 0.118601,-0.527142 0.176861,-0.109304 0.412594,0.03847 0.52385,0.328401 0.219322,0.571546 -0.310713,0.735507 -0.642451,0.198741 z m -9.355931,-3.366428 c -0.237282,-0.285905 -0.960717,-0.619129 -1.607633,-0.740491 -0.646921,-0.121359 -1.464406,-0.545536 -1.816637,-0.942612 -0.62321,-0.702546 -0.621457,-0.712226 0.06513,-0.360122 0.388055,0.199005 1.385055,0.359209 2.21555,0.356002 1.748667,-0.0067 1.708947,-0.03097 2.02735,1.237639 0.266492,1.06178 -0.185046,1.291488 -0.883764,0.449584 z m -9.094252,-3.768905 c -0.241173,-0.241173 -0.438496,-0.944703 -0.438496,-1.563402 0,-1.013989 0.126277,-1.148595 1.280672,-1.365161 1.677321,-0.314667 2.061125,0.103452 1.660274,1.808709 -0.251308,1.069093 -0.500238,1.37324 -1.19084,1.454993 -0.480215,0.05684 -1.07044,-0.09397 -1.31161,-0.335139 z M 326.0396,38.689306 c 0.13472,-1.195257 0.46993,-1.916574 1.25593,-2.702574 1.05279,-1.052787 1.08895,-1.061155 2.00172,-0.463087 0.79464,0.520668 0.89472,0.772117 0.68949,1.732431 -0.13203,0.617852 -0.49408,1.559927 -0.80455,2.093503 -0.46374,0.796971 -0.81099,0.970139 -1.94543,0.970139 h -1.38093 z M 21.1967,39.249648 20.363868,38.555829 h 0.921027 c 0.685841,0 0.921026,0.180164 0.921026,0.705556 0,0.850674 0.02635,0.850981 -1.009221,-0.01175 z m 299.812,-0.538251 c 0,-0.302493 0.16134,-0.450271 0.35853,-0.328401 0.1972,0.121871 0.2672,0.369366 0.15557,0.549988 -0.30241,0.489317 -0.5141,0.398078 -0.5141,-0.221587 z m 3.52778,-1.058333 c 0,-0.302493 0.16134,-0.450271 0.35853,-0.328401 0.19719,0.121871 0.2672,0.369366 0.15557,0.549988 -0.30241,0.489317 -0.5141,0.398078 -0.5141,-0.221587 z M 11.458635,36.273273 c -0.769271,-0.657772 -2.0482952,-1.37783 -2.8422752,-1.60013 -1.722906,-0.482385 -2.476926,-1.450347 -1.928313,-2.475438 0.486244,-0.908554 0.759585,-0.879891 1.759541,0.184513 0.455699,0.48507 1.038996,0.881945 1.296216,0.881945 0.2572202,0 0.4676732,0.206841 0.4676732,0.459648 0,0.252808 0.754062,0.867177 1.675694,1.365264 1.041243,0.56273 1.675695,1.145586 1.675695,1.539424 0,1.023531 -0.612731,0.920093 -2.104231,-0.355226 z m 286.972285,-3.00911 c 0,-0.194028 0.16812,-0.352778 0.3736,-0.352778 0.20548,0 0.27549,0.15875 0.15557,0.352778 -0.11992,0.194028 -0.28804,0.352778 -0.3736,0.352778 -0.0856,0 -0.15557,-0.15875 -0.15557,-0.352778 z M 134.95409,32.263555 c -0.1042,-0.168607 0.0385,-0.607759 0.31719,-0.975893 0.48999,-0.647326 0.50701,-0.643922 0.51786,0.103597 0.012,0.825023 -0.52049,1.381248 -0.83505,0.872296 z m -30.19816,-0.311094 c 0,-0.216965 -0.10192,-0.685278 -0.22648,-1.040694 -0.21569,-0.615463 -0.19543,-0.616956 0.42586,-0.03136 0.50951,0.480229 0.55909,0.708074 0.22647,1.040694 -0.29521,0.295212 -0.42585,0.304835 -0.42585,0.03136 z m 5.29166,-3.627187 c 0,-0.194028 0.15875,-0.352778 0.35278,-0.352778 0.19403,0 0.35278,0.15875 0.35278,0.352778 0,0.194028 -0.15875,0.352778 -0.35278,0.352778 -0.19403,0 -0.35278,-0.15875 -0.35278,-0.352778 z m 111.0001,-0.648656 c -0.57538,-0.635787 -0.57583,-0.68882 -0.008,-0.906822 0.80911,-0.31048 1.35292,0.270393 0.94147,1.005621 -0.29275,0.523106 -0.3792,0.513959 -0.93374,-0.0988 z m 80.57064,-1.092041 c -0.20085,-0.375299 -0.36518,-0.913941 -0.36518,-1.196979 0,-0.283037 -0.24819,-0.609854 -0.55153,-0.726256 -0.62568,-0.240097 -0.35859,-0.922179 0.36111,-0.922179 0.52205,0 1.9543,2.212379 1.9543,3.018776 0,0.742883 -0.97287,0.6223 -1.3987,-0.173362 z m -82.7388,-0.627525 c -0.38805,-0.09334 -0.85637,-0.313048 -1.04069,-0.488241 -0.50461,-0.479612 0.52029,-0.363466 1.74625,0.197891 1.0403,0.476345 0.68153,0.62399 -0.70556,0.29035 z m 4.93889,-0.101222 c -0.11992,-0.194028 -0.0499,-0.352778 0.15557,-0.352778 0.20548,0 0.3736,0.15875 0.3736,0.352778 0,0.194028 -0.07,0.352778 -0.15557,0.352778 -0.0856,0 -0.25368,-0.15875 -0.3736,-0.352778 z m -95.30085,-2.216065 c 0.14208,-0.566082 -0.004,-0.93338 -0.49092,-1.237714 -0.99642,-0.622275 -0.85416,-1.586015 0.36744,-2.489182 l 1.06039,-0.783982 0.40734,0.894027 c 0.22404,0.491716 0.54062,0.894027 0.7035,0.894027 0.50324,0 0.32652,1.916324 -0.25302,2.743726 -0.30204,0.431228 -0.87487,0.784052 -1.27296,0.784052 -0.57743,0 -0.68295,-0.162775 -0.52177,-0.804954 z m 93.12953,-2.914428 c -0.11489,-0.29941 -0.11375,-0.63953 0.002,-0.755826 0.30503,-0.305033 1.31618,0.614535 1.08573,0.987403 -0.30109,0.487176 -0.85793,0.368685 -1.08828,-0.231577 z m 89.01956,0.315309 c -0.13407,-0.134073 0.0113,-0.633091 0.32311,-1.108929 0.45303,-0.691412 0.48475,-1.018592 0.15797,-1.629194 -0.30093,-0.562293 -0.3071,-1.031798 -0.0234,-1.778088 0.4396,-1.156237 0.72447,-0.948627 1.39028,1.013213 0.42691,1.257924 0.40947,1.427155 -0.19257,1.868466 -0.3641,0.266894 -0.66267,0.742696 -0.66349,1.057338 -0.002,0.621267 -0.59979,0.969331 -0.99193,0.577194 z m -87.72779,-1.057772 c -0.7812,-0.657335 -0.98175,-1.013383 -0.67692,-1.201776 0.73039,-0.451404 2.08564,0.40018 2.08564,1.310527 0,1.034203 -0.0555,1.02992 -1.40872,-0.108751 z M 0.33369777,4.6891606 c -0.452224,-0.29225 -0.439401,-0.34276 0.08819,-0.34737 0.339549,-0.003 0.61736103,0.15334 0.61736103,0.34737 0,0.43025 -0.03979,0.43025 -0.70555603,0 z m 1.61034703,-1.37414 c -0.107351,-0.1737 0.04203,-0.40684 0.331958,-0.5181 0.320202,-0.12287 0.52714,10e-4 0.52714,0.31581 0,0.57058 -0.551259,0.70038 -0.859098,0.20229 z"
       id="path1244" />
  </g>
</svg>
